<svg width="50" height="50" viewBox="0 0 50 50" fill="none" xmlns="http://www.w3.org/2000/svg">
<rect width="50" height="50" rx="8" fill="url(#paint0_linear_37_712)"/>
<path fill-rule="evenodd" clip-rule="evenodd" d="M25 14.5001C19.201 14.5001 14.5 19.2011 14.5 25.0001C14.5 30.7991 19.201 35.5001 25 35.5001C30.799 35.5001 35.5 30.7991 35.5 25.0001C35.5 19.2011 30.799 14.5001 25 14.5001ZM12.1667 25.0001C12.1667 17.9124 17.9124 12.1667 25 12.1667C32.0877 12.1667 37.8334 17.9124 37.8334 25.0001C37.8334 32.0877 32.0877 37.8334 25 37.8334C17.9124 37.8334 12.1667 32.0877 12.1667 25.0001ZM25 16.2501C25.6444 16.2501 26.1667 16.7724 26.1667 17.4167V18.0001H26.3611C28.5089 18.0001 30.25 19.7412 30.25 21.889C30.25 22.5333 29.7277 23.0556 29.0834 23.0556C28.439 23.0556 27.9167 22.5333 27.9167 21.889C27.9167 21.0299 27.2202 20.3334 26.3611 20.3334H23.8334C22.8669 20.3334 22.0834 21.1169 22.0834 22.0834C22.0834 23.0499 22.8669 23.8334 23.8334 23.8334H26.1667C28.4219 23.8334 30.25 25.6616 30.25 27.9167C30.25 30.1719 28.4218 32.0001 26.1667 32.0001V32.5834C26.1667 33.2277 25.6444 33.7501 25 33.7501C24.3557 33.7501 23.8334 33.2277 23.8334 32.5834V32.0001H23.6389C21.4911 32.0001 19.75 30.259 19.75 28.1112C19.75 27.4669 20.2724 26.9445 20.9167 26.9445C21.561 26.9445 22.0834 27.4669 22.0834 28.1112C22.0834 28.9703 22.7798 29.6667 23.6389 29.6667H26.1667C27.1332 29.6667 27.9167 28.8832 27.9167 27.9167C27.9167 26.9502 27.1332 26.1667 26.1667 26.1667H23.8334C21.5782 26.1667 19.75 24.3386 19.75 22.0834C19.75 19.8283 21.5782 18.0001 23.8334 18.0001V17.4167C23.8334 16.7724 24.3557 16.2501 25 16.2501Z" fill="white"/>
<defs>
<linearGradient id="paint0_linear_37_712" x1="-2.77704e-07" y1="50" x2="51.1441" y2="47.5497" gradientUnits="userSpaceOnUse">
<stop stop-color="#E70073"/>
<stop offset="0.481376" stop-color="#E90060"/>
<stop offset="1" stop-color="#EC0046"/>
</linearGradient>
</defs>
</svg>
