<svg width="50" height="50" viewBox="0 0 50 50" fill="none" xmlns="http://www.w3.org/2000/svg">
<rect width="50" height="50" rx="8" fill="url(#paint0_linear_37_742)"/>
<path fill-rule="evenodd" clip-rule="evenodd" d="M24.6663 12.2701C24.8876 12.2381 25.1124 12.2381 25.3337 12.2701C25.5888 12.3069 25.8261 12.3966 26.0146 12.4678C26.0318 12.4743 26.0487 12.4807 26.0651 12.4868L32.3205 14.8326C32.3717 14.8518 32.4225 14.8708 32.4729 14.8896C33.1937 15.1587 33.8266 15.395 34.3141 15.8246C34.7405 16.2004 35.069 16.6744 35.2712 17.2057C35.5023 17.8129 35.5013 18.4886 35.5002 19.2579C35.5001 19.3117 35.5 19.3659 35.5 19.4206V25.0001C35.5 28.2978 33.7065 31.0472 31.7678 33.0669C29.8161 35.1002 27.583 36.5363 26.4022 37.2252C26.3866 37.2343 26.3707 37.2436 26.3544 37.2532C26.1389 37.3797 25.8593 37.5439 25.4893 37.6233C25.1866 37.6882 24.8134 37.6882 24.5107 37.6233C24.1407 37.5439 23.8611 37.3797 23.6456 37.2532C23.6293 37.2436 23.6134 37.2343 23.5978 37.2252C22.417 36.5363 20.184 35.1002 18.2322 33.0669C16.2935 31.0472 14.5 28.2978 14.5 25.0001V19.4206C14.5 19.3659 14.4999 19.3117 14.4998 19.2579C14.4987 18.4886 14.4978 17.8129 14.7288 17.2057C14.931 16.6744 15.2595 16.2004 15.6859 15.8246C16.1734 15.395 16.8063 15.1587 17.5271 14.8896C17.5775 14.8708 17.6283 14.8518 17.6795 14.8326L23.9349 12.4868C23.9513 12.4807 23.9682 12.4743 23.9854 12.4678C24.1739 12.3966 24.4112 12.3069 24.6663 12.2701ZM24.9965 14.5832C24.9488 14.5989 24.8842 14.6229 24.7542 14.6716L18.4988 17.0174C17.536 17.3784 17.3507 17.4676 17.2286 17.5752C17.0865 17.7004 16.977 17.8584 16.9096 18.0355C16.8517 18.1876 16.8333 18.3924 16.8333 19.4206V25.0001C16.8333 27.4289 18.163 29.6253 19.9156 31.4511C21.6552 33.2634 23.6816 34.5727 24.7736 35.2097C24.8403 35.2487 24.8885 35.2767 24.9303 35.3003C24.9632 35.3188 24.985 35.3304 25 35.3381C25.015 35.3304 25.0368 35.3188 25.0697 35.3003C25.1116 35.2767 25.1597 35.2487 25.2264 35.2097C26.3184 34.5727 28.3448 33.2634 30.0844 31.4511C31.837 29.6253 33.1667 27.4289 33.1667 25.0001V19.4206C33.1667 18.3924 33.1483 18.1876 33.0904 18.0355C33.023 17.8584 32.9135 17.7004 32.7714 17.5752C32.6493 17.4676 32.464 17.3784 31.5012 17.0174L25.2458 14.6716C25.1158 14.6229 25.0512 14.5989 25.0035 14.5832C25.0023 14.5828 25.0011 14.5825 25 14.5821C24.9989 14.5825 24.9977 14.5828 24.9965 14.5832ZM29.9083 20.6751C30.3639 21.1307 30.3639 21.8694 29.9083 22.3251L24.6583 27.5751C24.2027 28.0307 23.464 28.0307 23.0084 27.5751L20.675 25.2417C20.2194 24.7861 20.2194 24.0474 20.675 23.5918C21.1307 23.1362 21.8693 23.1362 22.325 23.5918L23.8333 25.1002L28.2584 20.6751C28.714 20.2195 29.4527 20.2195 29.9083 20.6751Z" fill="white"/>
<defs>
<linearGradient id="paint0_linear_37_742" x1="-2.77704e-07" y1="50" x2="51.1441" y2="47.5497" gradientUnits="userSpaceOnUse">
<stop stop-color="#970EF7"/>
<stop offset="0.481376" stop-color="#8C03E9"/>
<stop offset="1" stop-color="#8600DF"/>
</linearGradient>
</defs>
</svg>
