<svg width="50" height="50" viewBox="0 0 50 50" fill="none" xmlns="http://www.w3.org/2000/svg">
<rect width="50" height="50" rx="8" fill="url(#paint0_linear_37_722)"/>
<path fill-rule="evenodd" clip-rule="evenodd" d="M18.8851 12.1667H27.6148C28.554 12.1667 29.3291 12.1667 29.9605 12.2183C30.6162 12.2719 31.2191 12.3869 31.7853 12.6754C32.6634 13.1228 33.3773 13.8367 33.8247 14.7148C34.1132 15.281 34.2282 15.8838 34.2818 16.5396C34.3334 17.171 34.3333 17.9461 34.3333 18.8852V22.6873C34.4118 22.6915 34.4876 22.6964 34.5609 22.7024C35.0221 22.7401 35.4809 22.8233 35.9223 23.0482C36.5809 23.3838 37.1163 23.9192 37.4519 24.5778C37.6768 25.0192 37.76 25.478 37.7977 25.9392C37.8334 26.3762 37.8333 26.9068 37.8333 27.5218V30.7707C37.8333 31.2825 37.8334 31.7241 37.8084 32.0895C37.7822 32.4743 37.7244 32.8592 37.5669 33.2395C37.2117 34.0971 36.5303 34.7784 35.6727 35.1337C35.2925 35.2912 34.9076 35.3489 34.5228 35.3752C34.4617 35.3793 34.3986 35.3828 34.3333 35.3857V36.6667C34.3333 37.1011 34.092 37.4995 33.7071 37.7007C33.3222 37.9019 32.8573 37.8726 32.5007 37.6247L29.9615 35.8594C29.5704 35.5874 29.4913 35.5379 29.4166 35.504C29.3304 35.465 29.2398 35.4366 29.1467 35.4194C29.066 35.4045 28.9727 35.4001 28.4964 35.4001H26.355C25.74 35.4001 25.2095 35.4001 24.7725 35.3644C24.3112 35.3267 23.8525 35.2435 23.411 35.0186C22.7525 34.6831 22.217 34.1476 21.8815 33.4891C21.6565 33.0476 21.5733 32.5889 21.5357 32.1276C21.5164 31.8913 21.5075 31.6277 21.5034 31.3381L19.8783 32.9835C19.6549 33.2099 19.4357 33.4318 19.2436 33.5948C19.073 33.7395 18.7119 34.0316 18.2097 34.0733C17.6499 34.1198 17.1018 33.8948 16.7362 33.4683C16.4082 33.0858 16.3566 32.6242 16.3369 32.4013C16.3147 32.1504 16.3148 31.8385 16.3148 31.5204L16.3148 29.6797C16.2924 29.661 16.2404 29.6297 16.157 29.6175C14.1169 29.3187 12.5148 27.7165 12.2159 25.6764C12.1664 25.3381 12.1665 24.9563 12.1666 24.4411C12.1667 24.4118 12.1667 24.3821 12.1667 24.3519L12.1667 18.8852C12.1666 17.9461 12.1666 17.171 12.2182 16.5396C12.2718 15.8838 12.3868 15.281 12.6753 14.7148C13.1227 13.8367 13.8366 13.1228 14.7147 12.6754C15.2809 12.3869 15.8838 12.2719 16.5395 12.2183C17.1709 12.1667 17.946 12.1667 18.8851 12.1667ZM23.8333 28.4994C23.8333 28.4999 23.8333 28.5004 23.8333 28.5009V30.5001C23.8333 31.1727 23.8342 31.607 23.8612 31.9376C23.8871 32.2545 23.9311 32.3721 23.9605 32.4297C24.0723 32.6493 24.2508 32.8277 24.4703 32.9396C24.528 32.969 24.6455 33.0129 24.9625 33.0388C25.293 33.0658 25.7273 33.0667 26.4 33.0667H28.4964C28.5211 33.0667 28.5456 33.0667 28.5699 33.0667C28.9324 33.0665 29.2522 33.0662 29.5696 33.1247C29.8488 33.1762 30.1206 33.2614 30.3792 33.3785C30.6732 33.5116 30.9357 33.6944 31.2332 33.9016C31.2531 33.9154 31.2732 33.9294 31.2935 33.9435L32 34.4347V34.2334C32 33.5891 32.5223 33.0667 33.1667 33.0667C33.7262 33.0667 34.0875 33.0661 34.3639 33.0473C34.6299 33.0291 34.7312 32.9981 34.7798 32.9779C35.0657 32.8595 35.2928 32.6324 35.4112 32.3465C35.4313 32.298 35.4623 32.1967 35.4805 31.9307C35.4994 31.6542 35.5 31.293 35.5 30.7334V27.5667C35.5 26.8941 35.4991 26.4598 35.4721 26.1292C35.4462 25.8123 35.4022 25.6948 35.3728 25.6371C35.261 25.4176 35.0825 25.2391 34.863 25.1272C34.8053 25.0979 34.6878 25.0539 34.3709 25.028C34.0403 25.001 33.606 25.0001 32.9333 25.0001H26.4C25.7273 25.0001 25.293 25.001 24.9625 25.028C24.6455 25.0539 24.528 25.0979 24.4703 25.1272C24.2508 25.2391 24.0723 25.4176 23.9605 25.6371C23.9311 25.6948 23.8871 25.8123 23.8612 26.1292C23.8342 26.4598 23.8333 26.8941 23.8333 27.5668V28.4994ZM21.5 28.0211L18.6481 30.9086V29.657C18.6481 28.2833 17.5313 27.4606 16.4952 27.3088C15.4751 27.1594 14.674 26.3583 14.5246 25.3383C14.5031 25.1913 14.5 24.9953 14.5 24.3519V18.9334C14.5 17.9341 14.5009 17.2547 14.5438 16.7296C14.5856 16.2181 14.6613 15.9566 14.7543 15.7741C14.978 15.3351 15.335 14.9781 15.774 14.7544C15.9565 14.6614 16.2181 14.5857 16.7295 14.5439C17.2546 14.501 17.934 14.5001 18.9333 14.5001H27.5667C28.566 14.5001 29.2453 14.501 29.7704 14.5439C30.2819 14.5857 30.5435 14.6614 30.726 14.7544C31.165 14.9781 31.522 15.3351 31.7457 15.7741C31.8386 15.9566 31.9144 16.2181 31.9562 16.7296C31.9991 17.2547 32 17.9341 32 18.9334V22.6667L26.355 22.6667C25.74 22.6667 25.2095 22.6667 24.7725 22.7024C24.3112 22.7401 23.8525 22.8233 23.411 23.0482C22.7525 23.3838 22.217 23.9192 21.8815 24.5778C21.6565 25.0192 21.5733 25.478 21.5357 25.9392C21.5 26.3762 21.5 26.9068 21.5 27.5218L21.5 28.0211Z" fill="white"/>
<defs>
<linearGradient id="paint0_linear_37_722" x1="-2.77704e-07" y1="50" x2="51.1441" y2="47.5497" gradientUnits="userSpaceOnUse">
<stop stop-color="#11AA4E"/>
<stop offset="0.481376" stop-color="#00A055"/>
<stop offset="1" stop-color="#009B63"/>
</linearGradient>
</defs>
</svg>
