<svg width="50" height="50" viewBox="0 0 50 50" fill="none" xmlns="http://www.w3.org/2000/svg">
<rect width="50" height="50" rx="8" fill="url(#paint0_linear_37_752)"/>
<path fill-rule="evenodd" clip-rule="evenodd" d="M18 20.3333C18 16.4673 21.134 13.3333 25 13.3333C28.866 13.3333 32 16.4673 32 20.3333V21.6753C32.3297 21.7475 32.6462 21.8527 32.952 22.0086C33.83 22.456 34.544 23.1699 34.9914 24.048C35.2799 24.6142 35.3949 25.217 35.4484 25.8728C35.5 26.5042 35.5 27.2793 35.5 28.2184V29.9481C35.5 30.8872 35.5 31.6623 35.4484 32.2937C35.3949 32.9495 35.2799 33.5523 34.9914 34.1185C34.544 34.9966 33.83 35.7105 32.952 36.1579C32.3857 36.4465 31.7829 36.5614 31.1271 36.615C30.4957 36.6666 29.7207 36.6666 28.7815 36.6666H21.2185C20.2793 36.6666 19.5043 36.6666 18.8729 36.615C18.2171 36.5614 17.6143 36.4465 17.048 36.1579C16.17 35.7105 15.456 34.9966 15.0086 34.1185C14.7201 33.5523 14.6051 32.9495 14.5516 32.2937C14.5 31.6623 14.5 30.8872 14.5 29.9481V28.2184C14.5 27.2793 14.5 26.5042 14.5516 25.8728C14.6051 25.217 14.7201 24.6142 15.0086 24.048C15.456 23.1699 16.17 22.456 17.048 22.0086C17.3538 21.8527 17.6703 21.7475 18 21.6753V20.3333ZM20.3333 21.5018C20.6107 21.4999 20.9055 21.4999 21.2185 21.4999H28.7815C29.0945 21.4999 29.3893 21.4999 29.6667 21.5018V20.3333C29.6667 17.7559 27.5773 15.6666 25 15.6666C22.4227 15.6666 20.3333 17.7559 20.3333 20.3333V21.5018ZM19.0629 23.8771C18.5514 23.9189 18.2898 23.9946 18.1074 24.0876C17.6683 24.3113 17.3114 24.6682 17.0877 25.1073C16.9947 25.2897 16.9189 25.5513 16.8771 26.0628C16.8342 26.5879 16.8333 27.2672 16.8333 28.2666V29.8999C16.8333 30.8993 16.8342 31.5786 16.8771 32.1037C16.9189 32.6152 16.9947 32.8768 17.0877 33.0592C17.3114 33.4983 17.6683 33.8552 18.1074 34.0789C18.2898 34.1719 18.5514 34.2477 19.0629 34.2894C19.588 34.3323 20.2673 34.3333 21.2667 34.3333H28.7333C29.7327 34.3333 30.412 34.3323 30.9371 34.2894C31.4486 34.2477 31.7102 34.1719 31.8926 34.0789C32.3317 33.8552 32.6886 33.4983 32.9123 33.0592C33.0053 32.8768 33.0811 32.6152 33.1229 32.1037C33.1658 31.5786 33.1667 30.8993 33.1667 29.8999V28.2666C33.1667 27.2672 33.1658 26.5879 33.1229 26.0628C33.0811 25.5513 33.0053 25.2897 32.9123 25.1073C32.6886 24.6682 32.3317 24.3113 31.8926 24.0876C31.7102 23.9946 31.4486 23.9189 30.9371 23.8771C30.412 23.8342 29.7327 23.8333 28.7333 23.8333H21.2667C20.2673 23.8333 19.588 23.8342 19.0629 23.8771ZM25 26.7499C25.6443 26.7499 26.1667 27.2723 26.1667 27.9166V30.2499C26.1667 30.8943 25.6443 31.4166 25 31.4166C24.3557 31.4166 23.8333 30.8943 23.8333 30.2499V27.9166C23.8333 27.2723 24.3557 26.7499 25 26.7499Z" fill="white"/>
<defs>
<linearGradient id="paint0_linear_37_752" x1="-2.77704e-07" y1="50" x2="51.1441" y2="47.5497" gradientUnits="userSpaceOnUse">
<stop stop-color="#155AF9"/>
<stop offset="0.481376" stop-color="#1451F0"/>
<stop offset="1" stop-color="#1449E8"/>
</linearGradient>
</defs>
</svg>
