<svg width="50" height="50" viewBox="0 0 50 50" fill="none" xmlns="http://www.w3.org/2000/svg">
<rect width="50" height="50" rx="8" fill="url(#paint0_linear_37_702)"/>
<path fill-rule="evenodd" clip-rule="evenodd" d="M18.8852 12.1667H31.1149C32.054 12.1667 32.8291 12.1667 33.4605 12.2183C34.1162 12.2719 34.7191 12.3869 35.2853 12.6754C36.1634 13.1228 36.8773 13.8367 37.3247 14.7148C37.6132 15.281 37.7282 15.8838 37.7818 16.5396C37.8334 17.171 37.8334 17.9461 37.8333 18.8852V31.115C37.8334 32.0541 37.8334 32.8292 37.7818 33.4605C37.7282 34.1163 37.6132 34.7191 37.3247 35.2854C36.8773 36.1635 36.1634 36.8774 35.2853 37.3248C35.0871 37.4257 34.8832 37.5062 34.6716 37.5703C33.8 37.8344 32.6934 37.834 31.2605 37.8335C31.1965 37.8334 31.1319 37.8334 31.0667 37.8334H18.9333C18.8681 37.8334 18.8035 37.8334 18.7396 37.8335C17.3066 37.834 16.2 37.8344 15.3284 37.5703C15.1168 37.5062 14.9129 37.4257 14.7147 37.3248C13.8366 36.8774 13.1227 36.1635 12.6753 35.2854C12.3868 34.7191 12.2718 34.1163 12.2182 33.4605C12.1666 32.8291 12.1667 32.0541 12.1667 31.1149V18.8852C12.1667 17.9461 12.1666 17.171 12.2182 16.5396C12.2718 15.8838 12.3868 15.281 12.6753 14.7148C13.1227 13.8367 13.8366 13.1228 14.7147 12.6754C15.2809 12.3869 15.8838 12.2719 16.5395 12.2183C17.1709 12.1667 17.946 12.1667 18.8852 12.1667ZM16.7296 14.5439C16.2181 14.5857 15.9565 14.6614 15.774 14.7544C15.335 14.9781 14.978 15.3351 14.7543 15.7741C14.6614 15.9566 14.5856 16.2181 14.5438 16.7296C14.5009 17.2547 14.5 17.9341 14.5 18.9334V31.0667C14.5 32.0661 14.5009 32.7454 14.5438 33.2705C14.5741 33.6415 14.6223 33.8811 14.682 34.0543C15.2354 31.8887 16.9849 30.2185 19.1953 29.7788C19.7609 29.6663 20.4111 29.6665 21.365 29.6667C21.4093 29.6667 21.4543 29.6667 21.5 29.6667H28.5C28.5457 29.6667 28.5907 29.6667 28.6351 29.6667C29.5889 29.6665 30.2391 29.6663 30.8047 29.7788C33.0151 30.2185 34.7646 31.8887 35.318 34.0543C35.3777 33.8811 35.4259 33.6415 35.4562 33.2705C35.4991 32.7454 35.5 32.0661 35.5 31.0667V18.9334C35.5 17.9341 35.4991 17.2547 35.4562 16.7296C35.4144 16.2181 35.3387 15.9566 35.2457 15.7741C35.022 15.3351 34.665 14.9781 34.226 14.7544C34.0435 14.6614 33.7819 14.5857 33.2705 14.5439C32.7454 14.501 32.066 14.5001 31.0667 14.5001H18.9333C17.934 14.5001 17.2547 14.501 16.7296 14.5439ZM33.1571 35.4652C33.148 35.1604 33.1309 34.9754 33.0994 34.8173C32.8232 33.4288 31.7379 32.3435 30.3495 32.0673C30.0398 32.0057 29.6401 32.0001 28.5 32.0001H21.5C20.3599 32.0001 19.9602 32.0057 19.6505 32.0673C18.2621 32.3435 17.1768 33.4288 16.9006 34.8173C16.8691 34.9754 16.852 35.1604 16.8429 35.4652C17.3177 35.496 17.9702 35.5001 18.9333 35.5001H31.0667C32.0298 35.5001 32.6823 35.496 33.1571 35.4652ZM25 18.5834C23.067 18.5834 21.5 20.1504 21.5 22.0834C21.5 24.0164 23.067 25.5834 25 25.5834C26.933 25.5834 28.5 24.0164 28.5 22.0834C28.5 20.1504 26.933 18.5834 25 18.5834ZM19.1667 22.0834C19.1667 18.8618 21.7783 16.2501 25 16.2501C28.2217 16.2501 30.8333 18.8618 30.8333 22.0834C30.8333 25.3051 28.2217 27.9167 25 27.9167C21.7783 27.9167 19.1667 25.3051 19.1667 22.0834Z" fill="white"/>
<defs>
<linearGradient id="paint0_linear_37_702" x1="-2.77704e-07" y1="50" x2="51.1441" y2="47.5497" gradientUnits="userSpaceOnUse">
<stop stop-color="#185CFC"/>
<stop offset="0.481376" stop-color="#5158D4"/>
<stop offset="1" stop-color="#543FF6"/>
</linearGradient>
</defs>
</svg>
