<svg width="50" height="50" viewBox="0 0 50 50" fill="none" xmlns="http://www.w3.org/2000/svg">
<rect width="50" height="50" rx="8" fill="url(#paint0_linear_37_732)"/>
<path fill-rule="evenodd" clip-rule="evenodd" d="M18.4185 20.6168C16.6611 22.0835 15.4313 23.807 14.8099 24.791C14.7687 24.8563 14.7398 24.902 14.7157 24.9417C14.6998 24.9679 14.6893 24.986 14.6823 24.9987C14.6823 24.9991 14.6823 24.9996 14.6823 25.0001C14.6823 25.0006 14.6823 25.001 14.6823 25.0015C14.6893 25.0141 14.6998 25.0323 14.7157 25.0584C14.7398 25.0981 14.7687 25.1439 14.8099 25.2092C15.4313 26.1931 16.6611 27.9167 18.4185 29.3834C20.173 30.8478 22.3832 32.0001 25.0005 32.0001C27.6177 32.0001 29.8279 30.8478 31.5825 29.3834C33.3398 27.9167 34.5696 26.1931 35.191 25.2092C35.2323 25.1439 35.2611 25.0981 35.2852 25.0584C35.3011 25.0322 35.3116 25.0141 35.3186 25.0015C35.3186 25.001 35.3186 25.0006 35.3186 25.0001C35.3186 24.9996 35.3186 24.9991 35.3186 24.9987C35.3116 24.986 35.3011 24.9679 35.2852 24.9417C35.2611 24.902 35.2323 24.8563 35.191 24.791C34.5696 23.807 33.3398 22.0835 31.5825 20.6168C29.8279 19.1524 27.6177 18.0001 25.0005 18.0001C22.3832 18.0001 20.173 19.1524 18.4185 20.6168ZM16.9233 18.8254C18.94 17.1423 21.6618 15.6667 25.0005 15.6667C28.3391 15.6667 31.0609 17.1423 33.0776 18.8254C35.0916 20.5063 36.4723 22.4501 37.1639 23.5451C37.173 23.5595 37.1824 23.5743 37.192 23.5894C37.3292 23.8054 37.5074 24.0858 37.5974 24.4788C37.6702 24.7961 37.6702 25.2041 37.5974 25.5214C37.5074 25.9143 37.3292 26.1948 37.192 26.4108C37.1824 26.4259 37.173 26.4406 37.1639 26.4551C36.4723 27.5501 35.0916 29.4939 33.0776 31.1747C31.0609 32.8579 28.3391 34.3334 25.0005 34.3334C21.6618 34.3334 18.94 32.8579 16.9233 31.1747C14.9094 29.4939 13.5286 27.5501 12.8371 26.4551C12.8279 26.4406 12.8185 26.4259 12.809 26.4108C12.6717 26.1948 12.4936 25.9143 12.4035 25.5214C12.3308 25.2041 12.3308 24.7961 12.4035 24.4788C12.4936 24.0858 12.6717 23.8054 12.809 23.5894C12.8185 23.5743 12.8279 23.5595 12.8371 23.5451C13.5286 22.4501 14.9094 20.5063 16.9233 18.8254ZM25.0005 22.6667C23.7118 22.6667 22.6671 23.7114 22.6671 25.0001C22.6671 26.2887 23.7118 27.3334 25.0005 27.3334C26.2891 27.3334 27.3338 26.2887 27.3338 25.0001C27.3338 23.7114 26.2891 22.6667 25.0005 22.6667ZM20.3338 25.0001C20.3338 22.4228 22.4231 20.3334 25.0005 20.3334C27.5778 20.3334 29.6671 22.4228 29.6671 25.0001C29.6671 27.5774 27.5778 29.6667 25.0005 29.6667C22.4231 29.6667 20.3338 27.5774 20.3338 25.0001Z" fill="white"/>
<defs>
<linearGradient id="paint0_linear_37_732" x1="-2.77704e-07" y1="50" x2="51.1441" y2="47.5497" gradientUnits="userSpaceOnUse">
<stop stop-color="#E46E00"/>
<stop offset="0.481376" stop-color="#EA6200"/>
<stop offset="1" stop-color="#F34F00"/>
</linearGradient>
</defs>
</svg>
