<svg width="60" height="60" viewBox="0 0 60 60" fill="none" xmlns="http://www.w3.org/2000/svg">
<rect width="60" height="60" rx="12" fill="url(#paint0_linear_37_943)"/>
<path d="M42 30C42 23.375 36.625 18 30 18C23.375 18 18 23.375 18 30C18 36.625 23.375 42 30 42C36.625 42 42 36.625 42 30ZM14 30C14 21.1625 21.1625 14 30 14C38.8375 14 46 21.1625 46 30C46 38.8375 38.8375 46 30 46C21.1625 46 14 38.8375 14 30ZM30 35C32.7625 35 35 32.7625 35 30C35 27.2375 32.7625 25 30 25C27.2375 25 25 27.2375 25 30C25 32.7625 27.2375 35 30 35ZM30 21C34.9688 21 39 25.0312 39 30C39 34.9688 34.9688 39 30 39C25.0312 39 21 34.9688 21 30C21 25.0312 25.0312 21 30 21ZM28 30C28 28.8938 28.8938 28 30 28C31.1063 28 32 28.8938 32 30C32 31.1063 31.1063 32 30 32C28.8938 32 28 31.1063 28 30Z" fill="white"/>
<defs>
<linearGradient id="paint0_linear_37_943" x1="-3.33244e-07" y1="60" x2="61.373" y2="57.0596" gradientUnits="userSpaceOnUse">
<stop stop-color="#185CFC"/>
<stop offset="0.481376" stop-color="#5158D4"/>
<stop offset="1" stop-color="#543FF6"/>
</linearGradient>
</defs>
</svg>
