<svg width="60" height="60" viewBox="0 0 60 60" fill="none" xmlns="http://www.w3.org/2000/svg">
<rect width="60" height="60" rx="12" fill="url(#paint0_linear_37_937)"/>
<path d="M35.3347 24.6003C34.3515 24.6003 33.5572 23.7958 33.5572 22.8001C33.5572 21.8044 34.3515 21 35.3347 21H44.2225C45.2057 21 46 21.8044 46 22.8001V31.8008C46 32.7965 45.2057 33.601 44.2225 33.601C43.2392 33.601 42.4449 32.7965 42.4449 31.8008V27.1486L33.035 36.6781C32.3407 37.3813 31.213 37.3813 30.5187 36.6781L24.6694 30.7489L17.0371 38.4726C16.3428 39.1758 15.2151 39.1758 14.5208 38.4726C13.8264 37.7694 13.8264 36.6275 14.5208 35.9243L23.4085 26.9236C24.1029 26.2204 25.2305 26.2204 25.9248 26.9236L31.7796 32.8528L39.9286 24.6003H35.3347Z" fill="white"/>
<defs>
<linearGradient id="paint0_linear_37_937" x1="-3.33244e-07" y1="60" x2="61.373" y2="57.0596" gradientUnits="userSpaceOnUse">
<stop stop-color="#185CFC"/>
<stop offset="0.481376" stop-color="#5158D4"/>
<stop offset="1" stop-color="#543FF6"/>
</linearGradient>
</defs>
</svg>
