<svg width="50" height="50" viewBox="0 0 50 50" fill="none" xmlns="http://www.w3.org/2000/svg">
<rect width="50" height="50" rx="8" fill="#144CEB"/>
<path fill-rule="evenodd" clip-rule="evenodd" d="M33.3536 12.1817C33.7238 12.2418 34.0425 12.4761 34.2102 12.8116L35.2029 14.7971L37.1884 15.7898C37.5239 15.9575 37.7582 16.2763 37.8183 16.6464C37.8784 17.0166 37.7568 17.3931 37.4917 17.6583L33.9917 21.1583C33.7729 21.3771 33.4761 21.5 33.1667 21.5H30.1499L25.825 25.8249C25.3694 26.2805 24.6307 26.2805 24.1751 25.8249C23.7195 25.3693 23.7195 24.6306 24.1751 24.1749L28.5 19.8501V16.8333C28.5 16.5239 28.6229 16.2271 28.8417 16.0083L32.3417 12.5083C32.6069 12.2432 32.9834 12.1216 33.3536 12.1817ZM30.8334 19.1666H32.6834L34.6972 17.1529L33.8116 16.7101C33.5858 16.5972 33.4028 16.4142 33.2899 16.1884L32.8471 15.3028L30.8334 17.3166V19.1666ZM25.0001 14.5C19.2011 14.5 14.5001 19.201 14.5001 25C14.5001 30.799 19.2011 35.5 25.0001 35.5C30.7991 35.5 35.5001 30.799 35.5001 25C35.5001 24.3556 36.0224 23.8333 36.6667 23.8333C37.3111 23.8333 37.8334 24.3556 37.8334 25C37.8334 32.0876 32.0877 37.8333 25.0001 37.8333C17.9124 37.8333 12.1667 32.0876 12.1667 25C12.1667 17.9123 17.9124 12.1666 25.0001 12.1666C25.6444 12.1666 26.1667 12.689 26.1667 13.3333C26.1667 13.9776 25.6444 14.5 25.0001 14.5ZM25.0001 20.3333C22.4228 20.3333 20.3334 22.4226 20.3334 25C20.3334 27.5773 22.4228 29.6666 25.0001 29.6666C27.5774 29.6666 29.6667 27.5773 29.6667 25C29.6667 24.3556 30.1891 23.8333 30.8334 23.8333C31.4777 23.8333 32.0001 24.3556 32.0001 25C32.0001 28.866 28.8661 32 25.0001 32C21.1341 32 18.0001 28.866 18.0001 25C18.0001 21.134 21.1341 18 25.0001 18C25.6444 18 26.1667 18.5223 26.1667 19.1666C26.1667 19.811 25.6444 20.3333 25.0001 20.3333Z" fill="white"/>
</svg>
