<svg width="50" height="50" viewBox="0 0 50 50" fill="none" xmlns="http://www.w3.org/2000/svg">
<rect width="50" height="50" rx="8" fill="#144CEB"/>
<path d="M25.0001 37.8333C17.9184 37.8333 12.1667 32.0816 12.1667 25C12.1667 17.9183 17.9184 12.1666 25.0001 12.1666C32.0817 12.1666 37.8334 17.9183 37.8334 25C37.8334 32.0816 32.0817 37.8333 25.0001 37.8333ZM25.0001 14.5C19.2134 14.5 14.5001 19.2133 14.5001 25C14.5001 30.7866 19.2134 35.5 25.0001 35.5C30.7867 35.5 35.5001 30.7866 35.5001 25C35.5001 19.2133 30.7867 14.5 25.0001 14.5ZM25.0001 30.8333C21.5351 30.8333 19.4817 28.15 19.4001 28.0333C19.0151 27.52 19.1201 26.785 19.6334 26.4C20.1467 26.015 20.8701 26.12 21.2667 26.6333C21.3017 26.68 22.7484 28.5 25.0001 28.5C27.2517 28.5 28.7217 26.645 28.7334 26.6333C29.1184 26.12 29.8534 26.0266 30.3667 26.4116C30.8801 26.7966 30.9851 27.52 30.6001 28.0333C30.5184 28.15 28.4651 30.8333 25.0001 30.8333ZM28.5001 23.25C27.5317 23.25 26.7501 22.4683 26.7501 21.5C26.7501 20.5316 27.5317 19.75 28.5001 19.75C29.4684 19.75 30.2501 20.5316 30.2501 21.5C30.2501 22.4683 29.4684 23.25 28.5001 23.25ZM21.5001 23.25C20.5317 23.25 19.7501 22.4683 19.7501 21.5C19.7501 20.5316 20.5317 19.75 21.5001 19.75C22.4684 19.75 23.2501 20.5316 23.2501 21.5C23.2501 22.4683 22.4684 23.25 21.5001 23.25Z" fill="white"/>
</svg>
