<svg width="50" height="50" viewBox="0 0 50 50" fill="none" xmlns="http://www.w3.org/2000/svg">
<rect width="50" height="50" rx="8" fill="#144CEB"/>
<path fill-rule="evenodd" clip-rule="evenodd" d="M21.2185 12.1666H28.7815C29.7206 12.1666 30.4957 12.1666 31.1271 12.2182C31.7829 12.2718 32.3857 12.3868 32.952 12.6753C33.83 13.1227 34.544 13.8366 34.9914 14.7147C35.2799 15.2809 35.3949 15.8837 35.4484 16.5395C35.5 17.1709 35.5 17.946 35.5 18.8851V25.5833C35.5 26.2276 34.9777 26.75 34.3333 26.75C33.689 26.75 33.1667 26.2276 33.1667 25.5833V18.9333C33.1667 17.934 33.1658 17.2546 33.1229 16.7295C33.0811 16.218 33.0053 15.9564 32.9124 15.774C32.6886 15.3349 32.3317 14.978 31.8926 14.7543C31.7102 14.6613 31.4486 14.5856 30.9371 14.5438C30.412 14.5009 29.7327 14.5 28.7333 14.5H21.2667C20.2673 14.5 19.588 14.5009 19.0629 14.5438C18.5514 14.5856 18.2898 14.6613 18.1074 14.7543C17.6683 14.978 17.3114 15.3349 17.0877 15.774C16.9947 15.9564 16.9189 16.218 16.8771 16.7295C16.8342 17.2546 16.8333 17.934 16.8333 18.9333V31.0666C16.8333 32.066 16.8342 32.7453 16.8771 33.2704C16.9189 33.7819 16.9947 34.0435 17.0877 34.2259C17.3114 34.665 17.6683 35.0219 18.1074 35.2456C18.2898 35.3386 18.5514 35.4144 19.0629 35.4561C19.588 35.4991 20.2673 35.5 21.2667 35.5H25C25.6443 35.5 26.1667 36.0223 26.1667 36.6666C26.1667 37.311 25.6443 37.8333 25 37.8333H21.2185C20.2793 37.8333 19.5043 37.8333 18.8729 37.7817C18.2171 37.7282 17.6143 37.6132 17.048 37.3247C16.17 36.8772 15.456 36.1633 15.0086 35.2852C14.7201 34.719 14.6051 34.1162 14.5516 33.4604C14.5 32.829 14.5 32.0539 14.5 31.1148V18.8851C14.5 17.946 14.5 17.1709 14.5516 16.5395C14.6051 15.8837 14.7201 15.2809 15.0086 14.7147C15.456 13.8366 16.17 13.1227 17.048 12.6753C17.6143 12.3868 18.2171 12.2718 18.8729 12.2182C19.5043 12.1666 20.2794 12.1666 21.2185 12.1666ZM19.1667 19.1666C19.1667 18.5223 19.689 18 20.3333 18H29.6667C30.311 18 30.8333 18.5223 30.8333 19.1666C30.8333 19.811 30.311 20.3333 29.6667 20.3333H20.3333C19.689 20.3333 19.1667 19.811 19.1667 19.1666ZM19.1667 23.8333C19.1667 23.189 19.689 22.6666 20.3333 22.6666H27.3333C27.9777 22.6666 28.5 23.189 28.5 23.8333C28.5 24.4776 27.9777 25 27.3333 25H20.3333C19.689 25 19.1667 24.4776 19.1667 23.8333ZM19.1667 28.5C19.1667 27.8556 19.689 27.3333 20.3333 27.3333H22.6667C23.311 27.3333 23.8333 27.8556 23.8333 28.5C23.8333 29.1443 23.311 29.6666 22.6667 29.6666H20.3333C19.689 29.6666 19.1667 29.1443 19.1667 28.5ZM36.325 29.425C36.7806 29.8806 36.7806 30.6193 36.325 31.0749L31.075 36.3249C30.6193 36.7805 29.8807 36.7805 29.425 36.3249L27.0917 33.9916C26.6361 33.536 26.6361 32.7973 27.0917 32.3417C27.5473 31.8861 28.286 31.8861 28.7416 32.3417L30.25 33.85L34.675 29.425C35.1307 28.9694 35.8693 28.9694 36.325 29.425Z" fill="white"/>
</svg>
