<svg width="50" height="50" viewBox="0 0 50 50" fill="none" xmlns="http://www.w3.org/2000/svg">
<rect width="50" height="50" rx="8" fill="#144CEB"/>
<path fill-rule="evenodd" clip-rule="evenodd" d="M25 13.3334C25.6443 13.3334 26.1667 13.8557 26.1667 14.5V18.9562L31.8082 18.0159C32.2899 17.9356 32.7707 18.1639 33.013 18.5879L37.1877 25.8937C37.1981 25.9119 37.2084 25.9299 37.2186 25.9478C37.3717 26.2153 37.5068 26.4514 37.6048 26.7089C37.691 26.9356 37.7534 27.1706 37.791 27.4101C37.8337 27.6823 37.8336 27.9543 37.8334 28.2626C37.8334 28.2831 37.8333 28.3039 37.8333 28.3248V28.5C37.8333 31.7217 35.2217 34.3334 32 34.3334C28.7783 34.3334 26.1667 31.7217 26.1667 28.5V28.3248C26.1667 28.3039 26.1667 28.2831 26.1667 28.2625C26.1665 27.9543 26.1663 27.6823 26.209 27.4101C26.2467 27.1706 26.3091 26.9356 26.3953 26.7089C26.4932 26.4514 26.6283 26.2153 26.7814 25.9478C26.7916 25.9299 26.8019 25.9119 26.8123 25.8937L29.7679 20.7215L25.2135 21.4806C25.2 21.483 25.1865 21.4853 25.1729 21.4873L19.844 22.3755L23.1877 28.2271C23.1981 28.2452 23.2084 28.2633 23.2187 28.2811C23.3717 28.5486 23.5068 28.7847 23.6048 29.0423C23.691 29.2689 23.7534 29.5039 23.791 29.7435C23.8337 30.0157 23.8336 30.2877 23.8334 30.5959C23.8334 30.6165 23.8333 30.6372 23.8333 30.6581V30.8334C23.8333 34.055 21.2217 36.6667 18 36.6667C14.7783 36.6667 12.1667 34.055 12.1667 30.8334V30.6581C12.1667 30.6372 12.1667 30.6165 12.1667 30.5959C12.1665 30.2877 12.1663 30.0157 12.209 29.7435C12.2467 29.5039 12.3091 29.2689 12.3953 29.0423C12.4932 28.7847 12.6283 28.5486 12.7814 28.2811C12.7916 28.2633 12.8019 28.2452 12.8123 28.2271L16.9871 20.9212C17.161 20.6169 17.4625 20.4069 17.8082 20.3492L23.8333 19.3451V14.5C23.8333 13.8557 24.3557 13.3334 25 13.3334ZM15.3437 28.5L18 23.8515L20.6563 28.5H15.3437ZM21.5 30.8334H14.5C14.5 32.7664 16.067 34.3334 18 34.3334C19.933 34.3334 21.5 32.7664 21.5 30.8334ZM32 21.5182L29.3437 26.1667H34.6563L32 21.5182ZM35.5 28.5H28.5C28.5 30.433 30.067 32 32 32C33.933 32 35.5 30.433 35.5 28.5Z" fill="white"/>
</svg>
