<svg width="50" height="50" viewBox="0 0 50 50" fill="none" xmlns="http://www.w3.org/2000/svg">
<rect width="50" height="50" rx="8" fill="#144CEB"/>
<path fill-rule="evenodd" clip-rule="evenodd" d="M20.0517 13.3333H29.9481C30.8872 13.3332 31.6623 13.3332 32.2937 13.3848C32.9495 13.4384 33.5523 13.5534 34.1185 13.8419C34.9966 14.2893 35.7105 15.0032 36.1579 15.8813C36.4465 16.4475 36.5614 17.0503 36.615 17.7061C36.6666 18.3375 36.6666 19.1126 36.6666 20.0517V29.9481C36.6666 30.8873 36.6666 31.6623 36.615 32.2937C36.5614 32.9495 36.4465 33.5523 36.1579 34.1185C35.7105 34.9966 34.9966 35.7105 34.1185 36.1579C33.5523 36.4465 32.9495 36.5614 32.2937 36.615C31.6623 36.6666 30.8872 36.6666 29.9481 36.6666H20.0517C19.1126 36.6666 18.3375 36.6666 17.7061 36.615C17.0503 36.5614 16.4475 36.4465 15.8813 36.1579C15.0032 35.7105 14.2893 34.9966 13.8419 34.1185C13.5534 33.5523 13.4384 32.9495 13.3848 32.2937C13.352 31.8921 13.3401 31.4325 13.3357 30.9094C13.3328 30.8642 13.3325 30.8188 13.3348 30.7736C13.3332 30.5138 13.3332 30.2388 13.3333 29.9481V20.0517C13.3332 19.1126 13.3332 18.3375 13.3848 17.7061C13.4384 17.0503 13.5534 16.4475 13.8419 15.8813C14.2893 15.0032 15.0032 14.2893 15.8813 13.8419C16.4475 13.5534 17.0503 13.4384 17.7061 13.3848C18.3375 13.3332 19.1126 13.3332 20.0517 13.3333ZM15.6747 31.3084C15.6808 31.6126 15.6916 31.873 15.7104 32.1037C15.7522 32.6152 15.8279 32.8768 15.9209 33.0592C16.1446 33.4983 16.5016 33.8552 16.9406 34.0789C17.1231 34.1719 17.3846 34.2477 17.8961 34.2894C18.4212 34.3323 19.1006 34.3333 20.0999 34.3333H29.8999C30.8993 34.3333 31.5786 34.3323 32.1037 34.2894C32.6152 34.2477 32.8768 34.1719 33.0592 34.0789C33.4983 33.8552 33.8552 33.4983 34.0789 33.0592C34.1719 32.8768 34.2477 32.6152 34.2894 32.1037C34.3323 31.5786 34.3333 30.8993 34.3333 29.8999V20.0999C34.3333 19.1006 34.3323 18.4212 34.2894 17.8961C34.2477 17.3846 34.1719 17.1231 34.0789 16.9406C33.8552 16.5016 33.4983 16.1446 33.0592 15.9209C32.8768 15.8279 32.6152 15.7522 32.1037 15.7104C31.5786 15.6675 30.8993 15.6666 29.8999 15.6666H20.0999C19.1006 15.6666 18.4212 15.6675 17.8961 15.7104C17.3846 15.7522 17.1231 15.8279 16.9406 15.9209C16.5016 16.1446 16.1446 16.5016 15.9209 16.9406C15.8279 17.1231 15.7522 17.3846 15.7104 17.8961C15.6675 18.4212 15.6666 19.1006 15.6666 20.0999V28.0167L18.8483 24.8349C18.8546 24.8287 18.861 24.8223 18.8674 24.8158C18.9656 24.7175 19.083 24.6001 19.1948 24.5052C19.3244 24.3952 19.5211 24.2487 19.7925 24.1605C20.1439 24.0463 20.5226 24.0463 20.874 24.1605C21.1454 24.2487 21.3421 24.3952 21.4717 24.5052C21.5836 24.6001 21.7009 24.7175 21.7991 24.8158C21.8055 24.8223 21.8119 24.8287 21.8182 24.8349L23.8333 26.85L28.0167 22.6666H26.1666C25.5223 22.6666 24.9999 22.1443 24.9999 21.4999C24.9999 20.8556 25.5223 20.3333 26.1666 20.3333H30.8333C31.4776 20.3333 31.9999 20.8556 31.9999 21.4999V26.1666C31.9999 26.8109 31.4776 27.3333 30.8333 27.3333C30.1889 27.3333 29.6666 26.8109 29.6666 26.1666V24.3165L25.3182 28.6649C25.3119 28.6712 25.3055 28.6776 25.2991 28.684C25.2009 28.7823 25.0836 28.8997 24.9717 28.9946C24.8421 29.1047 24.6454 29.2511 24.374 29.3393C24.0226 29.4535 23.6439 29.4535 23.2925 29.3393C23.0211 29.2511 22.8244 29.1047 22.6948 28.9946C22.583 28.8997 22.4656 28.7823 22.3674 28.684C22.361 28.6776 22.3546 28.6712 22.3483 28.6649L20.3333 26.6498L15.6747 31.3084Z" fill="white"/>
</svg>
