<svg width="50" height="50" viewBox="0 0 50 50" fill="none" xmlns="http://www.w3.org/2000/svg">
<rect width="50" height="50" rx="8" fill="#144CEB"/>
<path fill-rule="evenodd" clip-rule="evenodd" d="M28.4999 15.6666C27.8556 15.6666 27.3333 15.1443 27.3333 14.4999C27.3333 13.8556 27.8556 13.3333 28.4999 13.3333H35.4999C36.1443 13.3333 36.6666 13.8556 36.6666 14.4999V21.4999C36.6666 22.1443 36.1443 22.6666 35.4999 22.6666C34.8556 22.6666 34.3333 22.1443 34.3333 21.4999V17.3165L17.3165 34.3333H21.4999C22.1443 34.3333 22.6666 34.8556 22.6666 35.4999C22.6666 36.1443 22.1443 36.6666 21.4999 36.6666H14.4999C14.1905 36.6666 13.8938 36.5437 13.675 36.3249C13.4562 36.1061 13.3333 35.8093 13.3333 35.4999L13.3333 28.4999C13.3333 27.8556 13.8556 27.3333 14.4999 27.3333C15.1443 27.3333 15.6666 27.8556 15.6666 28.4999L15.6666 32.6833L32.6833 15.6666H28.4999Z" fill="white"/>
</svg>
