<?xml version="1.0" encoding="UTF-8"?>
<svg version="1.1" xmlns="http://www.w3.org/2000/svg" width="1056" height="992">
<path d="M0 0 C1.27870972 0.39481567 1.27870972 0.39481567 2.58325195 0.79760742 C34.4393698 10.83860924 62.8678354 26.19377444 87.2265625 49.1875 C89.66859185 51.53471364 89.66859185 51.53471364 92.6875 53.4375 C92.6875 54.0975 92.6875 54.7575 92.6875 55.4375 C93.3475 55.4375 94.0075 55.4375 94.6875 55.4375 C94.6875 56.0975 94.6875 56.7575 94.6875 57.4375 C95.3475 57.4375 96.0075 57.4375 96.6875 57.4375 C98.08349396 58.96587269 99.40337649 60.56400099 100.6875 62.1875 C101.49574219 63.20328125 102.30398438 64.2190625 103.13671875 65.265625 C103.55872559 65.79607422 103.98073242 66.32652344 104.41552734 66.87304688 C105.6036367 68.33435297 106.84126138 69.75500892 108.08203125 71.171875 C123.42584263 88.72182404 134.36972133 109.78652016 142.6875 131.4375 C142.95304687 132.11506348 143.21859375 132.79262695 143.4921875 133.49072266 C149.38891656 148.65217641 152.82617268 164.40753733 155.4375 180.4375 C155.55311279 181.14116699 155.66872559 181.84483398 155.7878418 182.56982422 C157.6415164 194.77846011 157.89595889 207.11116386 157.875 219.4375 C157.87406342 220.15738098 157.87312683 220.87726196 157.87216187 221.61895752 C157.79203286 250.2246171 153.95506932 278.28712094 144.6875 305.4375 C144.28144531 306.6430957 144.28144531 306.6430957 143.8671875 307.87304688 C136.47004912 329.5978201 125.89777704 349.39351512 111.6875 367.4375 C110.73617187 368.67886719 110.73617187 368.67886719 109.765625 369.9453125 C74.4884421 415.28086573 22.66968823 442.95777955 -34.08945233 450.22517031 C-45.91632487 451.64299784 -57.64683565 451.71341999 -69.54516602 451.68041992 C-71.82203221 451.68149538 -74.09889813 451.68343796 -76.37576294 451.68617249 C-82.5006295 451.69097719 -88.62542205 451.6834238 -94.75027966 451.67321944 C-101.17327609 451.6643819 -107.59627059 451.66619738 -114.01927185 451.6665802 C-124.78263842 451.66564712 -135.54597019 451.65705994 -146.30932617 451.64331055 C-157.38355014 451.62917147 -168.45774931 451.62214235 -179.53198242 451.62280273 C-180.21668397 451.62284269 -180.90138553 451.62288265 -181.60683561 451.62292381 C-182.63213848 451.62298435 -182.63213848 451.62298435 -183.67815453 451.6230461 C-195.67359809 451.62370001 -207.66903135 451.6185655 -219.66447258 451.61025429 C-224.76854468 451.60671791 -229.87261321 451.60489057 -234.97668648 451.60436058 C-240.9677825 451.60336022 -246.95885234 451.59728902 -252.94993973 451.58719444 C-255.15389915 451.58426159 -257.35786159 451.58304565 -259.56182289 451.58362198 C-262.55581572 451.58410888 -265.54973395 451.57849496 -268.54371643 451.57121277 C-269.42733449 451.57276137 -270.31095255 451.57430997 -271.22134691 451.5759055 C-277.19831964 451.55168036 -277.19831964 451.55168036 -278.3125 450.4375 C-278.42169821 447.28865447 -278.46475136 444.16140889 -278.46640015 441.01177979 C-278.4707824 440.00989931 -278.47516465 439.00801883 -278.4796797 437.97577834 C-278.49312218 434.59094677 -278.49925874 431.20614126 -278.50537109 427.82128906 C-278.51326777 425.40563843 -278.52153644 422.98998899 -278.53015137 420.57434082 C-278.55415312 413.3043771 -278.56930721 406.03441156 -278.58221143 398.76442206 C-278.58592165 396.71189334 -278.58989503 394.65936531 -278.5939641 392.60683727 C-278.61920079 379.86829107 -278.64125986 367.12974383 -278.65369225 354.39117813 C-278.65662208 351.43884528 -278.65958372 348.48651246 -278.66259766 345.53417969 C-278.66334371 344.80036551 -278.66408976 344.06655133 -278.66485842 343.31050035 C-278.67751323 331.42192646 -278.71073605 319.53350209 -278.75239949 307.6449981 C-278.79479983 295.44645742 -278.81838514 283.24799331 -278.82361281 271.04937911 C-278.82702931 264.19741142 -278.83881198 257.3456773 -278.87171555 250.49378204 C-278.90261303 244.04894485 -278.90814352 237.60440358 -278.89633179 231.15950012 C-278.89611021 228.79112481 -278.9044839 226.42273112 -278.92198563 224.05442047 C-278.9445477 220.82616877 -278.93644154 217.59941223 -278.92050171 214.37115479 C-278.9343838 213.42922783 -278.94826588 212.48730088 -278.96256864 211.51683068 C-278.90693992 206.95867105 -278.82459504 205.07560149 -275.88590431 201.41381454 C-275.03668089 200.76163074 -274.18745747 200.10944695 -273.3125 199.4375 C-272.72428467 198.92445313 -272.13606934 198.41140625 -271.5300293 197.8828125 C-270.98773682 197.44710937 -270.44544434 197.01140625 -269.88671875 196.5625 C-268.95110107 195.80682739 -268.95110107 195.80682739 -267.99658203 195.03588867 C-267.33770996 194.50842041 -266.67883789 193.98095215 -266 193.4375 C-264.57414255 192.28785491 -263.1483636 191.13811247 -261.72265625 189.98828125 C-260.63041748 189.10970459 -260.63041748 189.10970459 -259.51611328 188.21337891 C-255.97956729 185.36329741 -252.45953124 182.49298176 -248.9375 179.625 C-244.70725707 176.18257969 -240.4653995 172.75817542 -236.1875 169.375 C-232.22548096 166.22128585 -228.39089752 162.93788535 -224.5625 159.625 C-219.37751153 155.13851832 -214.07365866 150.85836359 -208.64916992 146.66625977 C-203.44747312 142.6143427 -198.47682249 138.31926081 -193.54907227 133.93969727 C-189.63380167 130.48396293 -185.75620806 127.19711091 -181.3125 124.4375 C-179.9925 124.7675 -178.6725 125.0975 -177.3125 125.4375 C-177.3125 203.6475 -177.3125 281.8575 -177.3125 362.4375 C-77.11388581 368.10512064 -77.11388581 368.10512064 10.6875 328.4375 C11.66332031 327.55578125 12.63914062 326.6740625 13.64453125 325.765625 C35.71421309 305.12654985 45.55773034 277.56548041 50.6875 248.4375 C50.86474609 247.54981934 51.04199219 246.66213867 51.22460938 245.74755859 C51.81890791 241.49782257 51.86935145 237.32921051 51.890625 233.04296875 C51.89632507 232.13734695 51.90202515 231.23172516 51.90789795 230.29866028 C51.9173214 228.38149166 51.92387135 226.46430703 51.92773438 224.54711914 C51.93734165 221.67238318 51.96834887 218.7983936 52 215.92382812 C52.06634824 204.41324879 51.16848065 193.67672403 48.6875 182.4375 C48.49397949 181.51106689 48.30045898 180.58463379 48.10107422 179.63012695 C43.78116514 159.85323369 35.21752496 138.5601787 20.90234375 123.85546875 C19.6875 122.4375 19.6875 122.4375 19.6875 120.4375 C19.0275 120.4375 18.3675 120.4375 17.6875 120.4375 C17.6875 119.7775 17.6875 119.1175 17.6875 118.4375 C17.0275 118.4375 16.3675 118.4375 15.6875 118.4375 C15.6875 117.7775 15.6875 117.1175 15.6875 116.4375 C15.0275 116.4375 14.3675 116.4375 13.6875 116.4375 C13.6875 115.7775 13.6875 115.1175 13.6875 114.4375 C13.0275 114.4375 12.3675 114.4375 11.6875 114.4375 C11.6875 113.7775 11.6875 113.1175 11.6875 112.4375 C10.83478516 112.05464844 10.83478516 112.05464844 9.96484375 111.6640625 C7.42547243 110.29637366 5.45103581 108.67577146 3.25 106.8125 C-2.58523833 102.07190756 -8.81403499 98.20021225 -15.3125 94.4375 C-15.99828125 94.03660156 -16.6840625 93.63570312 -17.390625 93.22265625 C-33.66626055 84.41258397 -54.39319807 80.54248697 -72.73046875 80.12109375 C-73.50957108 80.10031265 -74.2886734 80.07953156 -75.09138489 80.05812073 C-76.73087894 80.01516299 -78.37042329 79.97408695 -80.01000977 79.93481445 C-82.47620539 79.87557159 -84.94218645 79.81037712 -87.40820312 79.74414062 C-96.37872478 79.51089826 -105.33846477 79.37425308 -114.3125 79.4375 C-114.6425 78.1175 -114.9725 76.7975 -115.3125 75.4375 C-108.29154093 69.24196488 -101.28967782 63.08030169 -93.8125 57.4375 C-86.97848748 52.27011553 -80.5698353 46.67014412 -74.12939453 41.02490234 C-66.46775049 34.33100157 -58.65614379 27.87205263 -50.61743164 21.63671875 C-46.36303661 18.31667541 -42.26122567 14.8508153 -38.1875 11.3125 C-36.45625606 9.82788914 -34.72200044 8.34693627 -32.98535156 6.86865234 C-31.8825516 5.92518862 -30.78537195 4.97510976 -29.69433594 4.01806641 C-28.17339896 2.69348569 -26.61840588 1.4083239 -25.0625 0.125 C-23.75539063 -0.98294922 -23.75539063 -0.98294922 -22.421875 -2.11328125 C-15.39279825 -5.38939617 -7.06238078 -2.21272059 0 0 Z " fill="#28599E" transform="translate(726.3125,452.5625)"/>
<path d="M0 0 C2.51741171 0.35963024 3.67767305 0.58194226 5.26098633 2.63549805 C5.79115356 3.68797729 5.79115356 3.68797729 6.33203125 4.76171875 C6.93543335 5.93480591 6.93543335 5.93480591 7.55102539 7.1315918 C7.96731201 7.9750415 8.38359863 8.81849121 8.8125 9.6875 C9.25263428 10.55093018 9.69276855 11.41436035 10.14624023 12.30395508 C11.44602109 14.86201677 12.72668214 17.42867961 14 20 C14.32935547 20.66386719 14.65871094 21.32773438 14.99804688 22.01171875 C15.85312761 23.73684882 16.70782266 25.46217004 17.5625 27.1875 C20.26130994 32.62885059 23.15945481 37.91431111 26.16772461 43.18725586 C30.54197197 50.88523878 34.7001027 58.69918867 38.86352539 66.51269531 C42.27413017 72.88800403 45.8241146 79.15591011 49.49072266 85.38720703 C51.17536223 88.3035792 52.68356531 91.26901361 54.125 94.3125 C57.24450689 100.66317397 60.675525 106.79616747 64.1875 112.9375 C69.30659422 121.89221398 74.15887411 130.95401798 78.88793945 140.11987305 C81.93748834 146.01389467 85.10368467 151.78081675 88.50390625 157.48046875 C91.95092812 163.28550558 95.09830265 169.25670959 98.2109375 175.24609375 C102.53046626 183.54473002 106.94975098 191.74389076 111.6875 199.8125 C115.49163306 206.29169154 118.97846231 212.8124879 122.2734375 219.56640625 C124.16026657 223.31872017 126.17769458 226.97304192 128.25 230.625 C128.61746338 231.2746875 128.98492676 231.924375 129.36352539 232.59375 C131.06161042 235.59202729 132.76412522 238.58766809 134.47509766 241.57861328 C136.01430594 244.27599916 137.5391992 246.98110553 139.0625 249.6875 C139.79678223 250.96197998 139.79678223 250.96197998 140.54589844 252.26220703 C141.22120605 253.46852783 141.22120605 253.46852783 141.91015625 254.69921875 C142.31371338 255.40908936 142.71727051 256.11895996 143.13305664 256.8503418 C144.17417343 259.4318775 144.3143709 261.23961527 144 264 C142.24920351 266.01251349 140.6386054 267.60790874 138.625 269.3125 C138.07626221 269.79541504 137.52752441 270.27833008 136.9621582 270.77587891 C132.99287431 274.23958382 128.89615009 277.53600978 124.75 280.78515625 C121.32230314 283.54581551 118.00495884 286.42100203 114.6875 289.3125 C106.10282122 296.7918136 97.46809273 304.20139971 88.625 311.375 C83.32354171 315.68341227 78.17156928 320.15418951 73.03759766 324.65966797 C72.42706543 325.19350098 71.8165332 325.72733398 71.1875 326.27734375 C70.64480469 326.75421631 70.10210938 327.23108887 69.54296875 327.72241211 C65.60200893 330.98555179 65.60200893 330.98555179 62.55859375 331.05859375 C58.77990269 329.49519638 57.72779246 326.58009638 56.0625 323.0625 C55.36933347 321.67861054 54.67401546 320.29579665 53.9765625 318.9140625 C53.64043945 318.23891602 53.30431641 317.56376953 52.95800781 316.86816406 C51.73401659 314.4813188 50.35944956 312.21109849 48.9375 309.9375 C46.69426474 306.27654005 44.75518534 302.54754315 42.875 298.6875 C39.91773202 292.61958052 36.63178352 286.77812756 33.25 280.9375 C28.6059707 272.91103419 24.21054688 264.78938671 19.94995117 256.55371094 C16.75886455 250.40051022 13.44403281 244.33333225 9.99145508 238.32299805 C7.49298997 233.95771908 5.21973524 229.51395824 3 225 C0.14841412 228.46577361 -1.74235337 232.29894993 -3.6875 236.3125 C-6.36705666 241.76109759 -9.11912441 247.15525857 -12 252.5 C-14.64441486 257.41548853 -17.20526851 262.3584794 -19.68359375 267.359375 C-23.70486299 275.43458886 -27.78993874 283.47594855 -31.90942383 291.50146484 C-32.68142224 293.00688627 -33.45191818 294.51307909 -34.22094727 296.02001953 C-38.44932369 304.30531552 -42.76845947 312.46987377 -47.51879883 320.46972656 C-49.43981162 323.75131163 -51.13907189 327.08514896 -52.8125 330.5 C-53.48816476 331.8685471 -54.16395199 333.23703374 -54.83984375 334.60546875 C-55.18901855 335.31622559 -55.53819336 336.02698242 -55.89794922 336.75927734 C-61.44535849 348.03843602 -67.08579963 359.26310601 -72.97265625 370.36914062 C-76.04571587 376.17013163 -79.06881313 381.9955306 -82.078125 387.82983398 C-86.86713476 397.1117938 -91.70015636 406.3571068 -96.75 415.5 C-104.07445359 428.78010769 -110.91428929 442.31156104 -117.82414246 455.81011963 C-121.32310425 462.64098353 -124.86694358 469.44786914 -128.43774414 476.24145508 C-131.06031195 481.24249398 -133.64535904 486.26057604 -136.19233704 491.30044556 C-137.72230304 494.32673534 -139.25923445 497.34946907 -140.79611206 500.37225342 C-141.54944687 501.8591032 -142.29929991 503.34772286 -143.04544067 504.8381958 C-144.09315215 506.93054481 -145.15279767 509.01646137 -146.21484375 511.1015625 C-146.52275848 511.72450195 -146.83067322 512.34744141 -147.1479187 512.98925781 C-149.23206434 517.04388485 -151.64884683 519.93022102 -155 523 C-155.53923096 523.5141748 -156.07846191 524.02834961 -156.6340332 524.55810547 C-157.33532349 525.20610107 -157.33532349 525.20610107 -158.05078125 525.8671875 C-158.58018311 526.35662842 -159.10958496 526.84606934 -159.6550293 527.3503418 C-160.20199463 527.853479 -160.74895996 528.35661621 -161.3125 528.875 C-161.88718018 529.40456299 -162.46186035 529.93412598 -163.05395508 530.47973633 C-166.67523066 533.80751891 -170.33307568 537.08524635 -174.0546875 540.30078125 C-176.3366529 542.29406428 -178.57228574 544.33493027 -180.8125 546.375 C-184.23229328 549.46636801 -187.71958524 552.42459032 -191.3125 555.3125 C-196.76376101 559.72138108 -201.87713498 564.4352398 -207 569.21484375 C-209.9621924 571.97666341 -212.9902134 574.65302434 -216.0546875 577.30078125 C-218.3366529 579.29406428 -220.57228574 581.33493027 -222.8125 583.375 C-226.23229328 586.46636801 -229.71958524 589.42459032 -233.3125 592.3125 C-238.76727207 596.72422075 -243.88342474 601.4422635 -249.01171875 606.22265625 C-255.1792765 611.9714885 -261.62915628 617.37975359 -268.07763672 622.80834961 C-271.48479845 625.68674586 -274.82700688 628.62109543 -278.125 631.625 C-281.43735798 634.63865903 -284.82212804 637.50710724 -288.3125 640.3125 C-293.23698908 644.29131906 -297.88930042 648.50293199 -302.49731445 652.83911133 C-311.19253891 661 -311.19253891 661 -314 661 C-314 661.66 -314 662.32 -314 663 C-315.55240341 664.39325954 -317.17029985 665.71380128 -318.8125 667 C-323.90206934 671.06508828 -328.71305918 675.30867127 -333.4921875 679.73828125 C-340.43523316 686 -340.43523316 686 -343 686 C-343 686.66 -343 687.32 -343 688 C-344.53195272 689.37212301 -346.12921081 690.6715446 -347.75 691.9375 C-352.05762526 695.37472994 -356.16278847 698.92483576 -360.1875 702.6875 C-372.37485943 714 -372.37485943 714 -377 714 C-376.45472748 709.52422137 -375.32994961 706.26354798 -373.15625 702.32421875 C-372.57367432 701.25719727 -371.99109863 700.19017578 -371.39086914 699.09082031 C-370.76688232 697.96772461 -370.14289551 696.84462891 -369.5 695.6875 C-368.85766651 694.51583405 -368.21631573 693.34362885 -367.57592773 692.17089844 C-366.30510846 689.84495798 -365.0304461 687.52128639 -363.75341797 685.19873047 C-361.48864506 681.06714391 -359.26428254 676.91542816 -357.0625 672.75 C-356.70389893 672.07308105 -356.34529785 671.39616211 -355.97583008 670.69873047 C-353.81482368 666.60063526 -351.73406961 662.4692885 -349.6875 658.3125 C-346.16939696 651.21099271 -342.36897734 644.27389716 -338.5546875 637.32788086 C-335.37684158 631.53816816 -332.25332582 625.72472127 -329.1875 619.875 C-326.71288415 615.15695888 -324.16601934 610.5157588 -321.4375 605.9375 C-318.44980057 600.89874832 -315.83828153 595.73893322 -313.26147461 590.48413086 C-310.5001797 584.89787439 -307.52979417 579.44459154 -304.5 574 C-300.77055929 567.29709491 -297.22293025 560.54344877 -293.84765625 553.65625 C-291.71630546 549.34113816 -289.42617951 545.15580311 -287 541 C-284.16162263 536.11998277 -281.54742968 531.19310219 -279.0625 526.125 C-276.01476565 519.90927544 -272.72666903 513.87678495 -269.28979492 507.86865234 C-266.20076318 502.43831213 -263.42945325 496.897691 -260.67578125 491.2890625 C-259.07903573 488.15512374 -257.36510317 485.14425858 -255.5625 482.125 C-252.95361065 477.73260002 -250.57099851 473.26774418 -248.3125 468.6875 C-241.27727785 454.42474097 -233.96326944 440.30179194 -226.07568359 426.49072266 C-223.81405783 422.51054876 -221.7065518 418.48590596 -219.6875 414.375 C-216.68278055 408.26123056 -213.4651247 402.28407691 -210.1875 396.3125 C-203.45808329 384.0460351 -196.80528283 371.74166488 -190.625 359.1875 C-187.21888064 352.31159549 -183.52914265 345.60365843 -179.83129883 338.88110352 C-175.88488437 331.68276048 -172.07651272 324.42015441 -168.3125 317.125 C-164.38032714 309.50536404 -160.35488134 301.96874656 -156.09423828 294.52832031 C-153.63880698 290.21298721 -151.37417334 285.83195641 -149.1875 281.375 C-146.0833361 275.0496517 -142.77467167 268.85876933 -139.375 262.6875 C-134.78766562 254.35580606 -130.35438586 245.95569324 -126 237.5 C-121.84940184 229.44192788 -117.63426348 221.43332098 -113.25 213.5 C-107.93513603 203.86715045 -102.89186366 194.10260173 -97.875 184.3125 C-97.4819165 183.54551788 -97.08883301 182.77853577 -96.68383789 181.98831177 C-95.14573488 178.98673123 -93.607827 175.98505084 -92.07025146 172.98320007 C-85.67828621 160.51041713 -79.08915395 148.14839548 -72.4375 135.8125 C-67.18654488 126.07407749 -61.94965319 116.32841664 -56.75 106.5625 C-56.39962677 105.90452423 -56.04925354 105.24654846 -55.68826294 104.56863403 C-51.4553652 96.61050539 -47.27674568 88.62642422 -43.1640625 80.60546875 C-42.5616272 79.43069725 -42.5616272 79.43069725 -41.94702148 78.23219299 C-40.00884597 74.44906304 -38.07627536 70.66318825 -36.15136719 66.87329102 C-32.45654984 59.62088984 -28.62721386 52.51430134 -24.46972656 45.51171875 C-22.71987534 42.52127534 -21.18487327 39.49890003 -19.6875 36.375 C-15.78864265 28.44556716 -11.47722594 20.76532273 -7.15283203 13.06201172 C-4.73031059 8.72897147 -2.36498683 4.3646505 0 0 Z " fill="#2A74B1" transform="translate(496,98)"/>
<path d="M0 0 C1.22798481 3.68395444 0.66099191 4.44321849 -0.8515625 7.92578125 C-1.2839624 8.93439209 -1.7163623 9.94300293 -2.16186523 10.98217773 C-2.64469971 12.08118408 -3.12753418 13.18019043 -3.625 14.3125 C-4.12136963 15.46242432 -4.61773926 16.61234863 -5.12915039 17.79711914 C-6.19572263 20.26478021 -7.26562157 22.73066694 -8.34130859 25.19433594 C-9.97575547 28.93929848 -11.59274928 32.69162329 -13.20703125 36.4453125 C-18.87173687 49.60185718 -24.63449272 62.71206552 -30.46923828 75.79418945 C-38.35953642 93.51026467 -46.20043681 111.26739043 -53.4375 129.26171875 C-55.06521434 133.23345135 -56.85802631 137.12726964 -58.64355469 141.0300293 C-61.00185507 146.19358656 -63.31417098 151.37756067 -65.625 156.5625 C-66.1398999 157.71621094 -66.6547998 158.86992187 -67.18530273 160.05859375 C-69.89492789 166.15845493 -72.55480547 172.27232654 -75.12109375 178.43359375 C-75.61593262 179.61945068 -76.11077148 180.80530762 -76.62060547 182.02709961 C-77.56528482 184.30242364 -78.50336417 186.58050173 -79.43408203 188.86157227 C-79.85931152 189.88694092 -80.28454102 190.91230957 -80.72265625 191.96875 C-81.09140869 192.87044922 -81.46016113 193.77214844 -81.84008789 194.70117188 C-82.97981644 196.95999823 -84.10703301 198.34701534 -86 200 C-86.99 199.67 -87.98 199.34 -89 199 C-90.6838743 190.30778803 -91.94527931 181.57700427 -93.12890625 172.8046875 C-93.32525107 171.36220852 -93.52178285 169.91975497 -93.7184906 168.47732544 C-94.1275645 165.47385685 -94.53501736 162.47017465 -94.94116211 159.46630859 C-95.45869231 155.6389496 -95.979361 151.81202602 -96.5011301 147.98524284 C-96.90613059 145.01348171 -97.3099441 142.04156028 -97.71336174 139.06958389 C-97.90486804 137.65911618 -98.09662069 136.24868189 -98.28863716 134.83828354 C-99.96495444 122.51256031 -99.96495444 122.51256031 -100.56225586 116.69189453 C-100.76677555 113.18412462 -100.76677555 113.18412462 -102 111 C-103.38058594 112.19882812 -103.38058594 112.19882812 -104.7890625 113.421875 C-113.49851576 120.98027875 -122.22904767 128.51303749 -131 136 C-131.53302734 136.45584473 -132.06605469 136.91168945 -132.61523438 137.38134766 C-141.02121298 144.56468546 -149.56988481 151.5610911 -158.16650391 158.51464844 C-161.59972814 161.29597151 -165.01640326 164.09746169 -168.43359375 166.8984375 C-170.17345205 168.32316165 -171.91572016 169.74494709 -173.66015625 171.1640625 C-178.03947561 174.73052978 -182.39163047 178.32220031 -186.6875 181.98852539 C-192.80821123 187.2108089 -199.0522339 192.2386137 -205.3984375 197.18359375 C-209.76053283 200.58440811 -214.07103888 204.04876921 -218.38305664 207.51269531 C-221.47465577 209.99240289 -224.57614316 212.45673866 -227.70703125 214.88671875 C-232.88901076 218.90994716 -237.99784225 222.91005556 -242.8125 227.375 C-247.08938497 231.31479059 -251.61097106 234.81744667 -256.25 238.3125 C-263.57142208 243.82997658 -270.54069395 249.65091745 -277.45361328 255.66699219 C-280.56621624 258.35010115 -283.76346483 260.92911197 -286.953125 263.51953125 C-290.0861245 266.07011417 -293.2035294 268.63882059 -296.31884766 271.2109375 C-299.22408411 273.60846887 -302.13343007 276.00097087 -305.04394531 278.39208984 C-306.26567686 279.39637391 -307.48653012 280.40172851 -308.70605469 281.40869141 C-310.11261289 282.56890073 -311.52477957 283.72230203 -312.9375 284.875 C-313.68902344 285.49117188 -314.44054687 286.10734375 -315.21484375 286.7421875 C-317 288 -317 288 -319 288 C-319 288.66 -319 289.32 -319 290 C-320.625 291.48828125 -320.625 291.48828125 -323 293.3125 C-323.91652344 294.02792969 -324.83304688 294.74335937 -325.77734375 295.48046875 C-326.54860596 296.08060791 -326.54860596 296.08060791 -327.33544922 296.69287109 C-330.4417943 299.13220397 -333.49966365 301.63141959 -336.5625 304.125 C-337.23966064 304.67567139 -337.91682129 305.22634277 -338.61450195 305.79370117 C-348.7078358 314.00871343 -358.7887137 322.23846679 -368.6875 330.6875 C-373.60978571 334.88693257 -378.65627731 338.90009823 -383.76367188 342.87133789 C-388.92865152 346.90378515 -393.92213329 351.11870239 -398.90625 355.37109375 C-405.04224926 360.60237741 -411.31659462 365.66630719 -417.625 370.6875 C-427.44456468 378.52441807 -437.13254833 386.53032834 -446.6875 394.6875 C-451.61172666 398.88867954 -456.65976721 402.9041909 -461.77026367 406.87573242 C-465.76316398 409.99177787 -469.65332465 413.20560777 -473.5 416.5 C-478.50010074 420.78134101 -483.61309108 424.88598568 -488.81347656 428.92114258 C-493.88998774 432.87263153 -498.79390594 437.00599134 -503.671875 441.19921875 C-506 443 -506 443 -508 443 C-508 443.66 -508 444.32 -508 445 C-509.80859375 446.453125 -509.80859375 446.453125 -512.4375 448.25 C-517.61118351 451.91219553 -522.50579795 455.81805848 -527.375 459.875 C-532.40630445 464.06257975 -537.46280707 468.1810275 -542.6875 472.125 C-547.18620575 475.5422325 -551.49328463 479.09974501 -555.75 482.8125 C-561.5598962 487.87676291 -567.59462158 492.56962402 -573.74633789 497.2097168 C-578.72247668 500.9789373 -583.51980912 504.90037047 -588.25146484 508.97021484 C-593.83023717 513.75326613 -599.62212858 518.2530655 -605.41894531 522.76708984 C-611.45020034 527.47027667 -617.36612611 532.28969342 -623.1875 537.25 C-634.28477914 546.69897293 -645.78935837 555.65046807 -657.26171875 564.63671875 C-659.02015122 566.01580399 -660.77606979 567.39802851 -662.53125 568.78125 C-668.78601554 573.70872372 -675.06624024 578.59906243 -681.38696289 583.44165039 C-685.44537229 586.55725339 -689.44078864 589.74459633 -693.42578125 592.953125 C-696.86103716 595.68464866 -700.34931479 598.34536958 -703.83642578 601.01000977 C-708.06855225 604.25562227 -712.22642585 607.58608593 -716.375 610.9375 C-721.97552467 615.45230449 -727.689152 619.77172651 -733.51293945 623.99365234 C-737.5851873 626.94860283 -741.59141 629.97320245 -745.5625 633.0625 C-751.62062767 637.76063983 -757.82299611 642.23278871 -764.08740234 646.65087891 C-766.12931387 648.09121629 -768.16829189 649.53564526 -770.20703125 650.98046875 C-773.80634774 653.52952876 -777.4120625 656.06935234 -781.02050781 658.60546875 C-782.79630185 659.85649681 -784.56681516 661.11456755 -786.3359375 662.375 C-793.26684871 667.2633001 -800.36749763 671.75669454 -807.64624023 676.10766602 C-811.17525499 678.22570442 -814.52889149 680.37479319 -817.7890625 682.890625 C-821 685 -821 685 -823.20068359 684.63183594 C-824.09134521 684.31907715 -824.09134521 684.31907715 -825 684 C-822.30966333 678.64774338 -818.09836672 674.81055616 -813.90234375 670.63671875 C-813.11227432 669.84473587 -812.3222049 669.05275299 -811.50819397 668.23677063 C-809.84214953 666.56936821 -808.17358876 664.90447677 -806.50268555 663.24194336 C-803.9362985 660.68630354 -801.38079775 658.12012479 -798.82617188 655.55273438 C-797.20637045 653.93425377 -795.58594915 652.31639327 -793.96484375 650.69921875 C-793.19712143 649.92744797 -792.42939911 649.15567719 -791.63841248 648.36051941 C-790.92749954 647.6559108 -790.21658661 646.95130219 -789.48413086 646.2253418 C-788.54506142 645.28865913 -788.54506142 645.28865913 -787.58702087 644.33305359 C-786 643 -786 643 -784 643 C-784 642.34 -784 641.68 -784 641 C-782.53125 639.5546875 -782.53125 639.5546875 -780.5 637.875 C-777.53322639 635.35742098 -774.72425751 632.77831024 -772 630 C-761.68313953 619.56104651 -761.68313953 619.56104651 -757 618 C-757 617.34 -757 616.68 -757 616 C-755.70703125 614.6953125 -755.70703125 614.6953125 -753.8125 613.125 C-751.02606221 610.7687842 -748.30329623 608.36953873 -745.64453125 605.87109375 C-745.06405029 605.32630371 -744.48356934 604.78151367 -743.88549805 604.22021484 C-742.71830338 603.12116453 -741.55435633 602.01865429 -740.39379883 600.91259766 C-736.22023676 597 -736.22023676 597 -734 597 C-734 596.34 -734 595.68 -734 595 C-732.671875 593.66015625 -732.671875 593.66015625 -730.75 592.0625 C-720.17934321 583.0626576 -710.16086039 573.42020666 -700.04345703 563.91845703 C-683.44803624 548.3381922 -683.44803624 548.3381922 -675.5546875 541.30859375 C-673.53882462 539.48691949 -671.54935144 537.64627881 -669.5703125 535.78515625 C-668.97879395 535.23102051 -668.38727539 534.67688477 -667.77783203 534.10595703 C-666.61087023 533.01078854 -665.44764591 531.91162108 -664.28857422 530.80810547 C-660.22254432 527 -660.22254432 527 -658 527 C-658 526.34 -658 525.68 -658 525 C-656.70703125 523.6953125 -656.70703125 523.6953125 -654.8125 522.125 C-652.05243559 519.78956089 -649.35097832 517.41501337 -646.71484375 514.94140625 C-646.14338623 514.40563965 -645.57192871 513.86987305 -644.9831543 513.31787109 C-643.84223781 512.24461567 -642.70429135 511.16819277 -641.56958008 510.08837891 C-638.87924636 507.5682989 -636.4485736 505.38110351 -633 504 C-633 503.34 -633 502.68 -633 502 C-632.34 502 -631.68 502 -631 502 C-631 501.34 -631 500.68 -631 500 C-629.671875 498.66015625 -629.671875 498.66015625 -627.75 497.0625 C-624.1362856 493.99148123 -620.61031621 490.84028771 -617.125 487.625 C-613.43502771 484.2290471 -609.73293734 480.84884089 -606 477.5 C-602.333931 474.20933647 -598.6913182 470.89414051 -595.0625 467.5625 C-578.75346416 452.59249982 -578.75346416 452.59249982 -571.65625 446.47265625 C-569.9638578 445.01146552 -569.9638578 445.01146552 -568.40625 443.30859375 C-567 442 -567 442 -565 442 C-565 441.34 -565 440.68 -565 440 C-563.6015625 438.58984375 -563.6015625 438.58984375 -561.625 436.9375 C-560.88765625 436.30972656 -560.1503125 435.68195313 -559.390625 435.03515625 C-558.60171875 434.36355469 -557.8128125 433.69195313 -557 433 C-550.58628498 427.32717965 -544.30896036 421.51091384 -538.0480957 415.67089844 C-534.33605308 412.21617655 -530.56374554 408.85006516 -526.72265625 405.5390625 C-524.33532599 403.40616426 -522.11336412 401.12513835 -519.87207031 398.84082031 C-518.07152905 397.07033503 -516.21659818 395.41767673 -514.30078125 393.7734375 C-509.23324819 389.36982945 -504.39705213 384.7325396 -499.56054688 380.078125 C-498.88443359 379.43617188 -498.20832031 378.79421875 -497.51171875 378.1328125 C-496.90803467 377.55418457 -496.30435059 376.97555664 -495.68237305 376.37939453 C-494 375 -494 375 -491 374 C-490.29790222 372.68497873 -489.63415826 371.34909804 -489 370 C-487.61474609 368.46362305 -487.61474609 368.46362305 -486.0234375 367.01171875 C-485.43949219 366.47409912 -484.85554688 365.93647949 -484.25390625 365.38256836 C-483.63386719 364.8231958 -483.01382812 364.26382324 -482.375 363.6875 C-481.73691406 363.10427979 -481.09882813 362.52105957 -480.44140625 361.92016602 C-474.9429632 356.908156 -469.36587378 352.00228406 -463.6875 347.1953125 C-457.84058787 342.23382126 -452.1177118 337.28315489 -446.76953125 331.77734375 C-444.39866709 329.3960122 -441.87018207 327.22989145 -439.32421875 325.0390625 C-436.37589339 322.45246445 -433.5009159 319.7915692 -430.625 317.125 C-425.12797378 312.03260939 -419.59121686 306.98908581 -414 302 C-413.25621094 301.32710937 -412.51242187 300.65421875 -411.74609375 299.9609375 C-411.04613281 299.33445312 -410.34617187 298.70796875 -409.625 298.0625 C-409.01914062 297.51722656 -408.41328125 296.97195313 -407.7890625 296.41015625 C-405.9475345 294.95864619 -404.12861194 293.97053452 -402 293 C-402 292.34 -402 291.68 -402 291 C-400.6015625 289.58984375 -400.6015625 289.58984375 -398.625 287.9375 C-395.46251983 285.24661775 -392.33458931 282.53012337 -389.25 279.75 C-388.40308594 278.986875 -387.55617188 278.22375 -386.68359375 277.4375 C-383.8790232 274.89011714 -381.09592175 272.32046196 -378.3125 269.75 C-373.09418036 264.93493361 -367.74884232 260.27744673 -362.33911133 255.67871094 C-359.23228806 253.01825334 -356.25824014 250.29725065 -353.38671875 247.3828125 C-350.61660934 244.57202885 -347.73486072 242.0624584 -344.625 239.625 C-340.15191676 236.02695219 -336.10367685 232.21040343 -332.09765625 228.10546875 C-329.60415571 225.60268142 -326.97668552 223.31099618 -324.296875 221.01171875 C-321.31175484 218.39720024 -318.40804272 215.69964473 -315.5 213 C-311.41721987 209.21344316 -307.30229295 205.48232096 -303.08984375 201.83984375 C-299.81730517 198.95878642 -296.62174457 195.99384358 -293.41503906 193.04003906 C-290.7054683 190.54873454 -287.97739667 188.08839147 -285.1875 185.6875 C-280.55167642 181.67107664 -276.1063229 177.45070833 -271.63183594 173.25683594 C-267.33411014 169.23266007 -262.98892943 165.26974499 -258.59765625 161.34765625 C-254.70851381 157.83280722 -250.88421427 154.24895801 -247.05078125 150.67358398 C-243.30084791 147.18434948 -239.49977543 143.77081894 -235.61328125 140.43359375 C-234.04160056 139.03696708 -232.58154791 137.57781353 -231.125 136.0625 C-229 134 -229 134 -227 134 C-227 133.34 -227 132.68 -227 132 C-225.38281689 130.5671282 -223.70376628 129.20375251 -222 127.875 C-217.68121909 124.42439912 -213.73590776 120.85302786 -209.88671875 116.89453125 C-207.42074935 114.41835079 -204.80847412 112.14833496 -202.15625 109.875 C-198.73568034 106.9005916 -195.42528854 103.80456321 -192.1015625 100.72265625 C-190 99 -190 99 -188 99 C-188 98.34 -188 97.68 -188 97 C-187.34 97 -186.68 97 -186 97 C-186 96.34 -186 95.68 -186 95 C-184.77734375 93.73046875 -184.77734375 93.73046875 -182.9375 92.1875 C-182.21820312 91.57519531 -181.49890625 90.96289062 -180.7578125 90.33203125 C-179.84773437 89.56246094 -178.93765625 88.79289062 -178 88 C-175.43193338 85.7980918 -172.87215529 83.58667438 -170.3125 81.375 C-169.67111084 80.82481201 -169.02972168 80.27462402 -168.36889648 79.70776367 C-164.76722984 76.60171778 -161.21787906 73.50705749 -158 70 C-158 69.34 -158 68.68 -158 68 C-159.40185547 67.23429687 -159.40185547 67.23429687 -160.83203125 66.453125 C-171.02705461 60.83032738 -180.87287087 54.75158696 -190.67919922 48.47998047 C-194.29425948 46.17464749 -197.92647474 43.89708127 -201.5625 41.625 C-202.21476563 41.21725342 -202.86703125 40.80950684 -203.5390625 40.3894043 C-208.65623823 37.1983934 -213.80900612 34.06967427 -219 31 C-218.67 29.68 -218.34 28.36 -218 27 C-202.93851363 24.82866044 -187.87295169 22.81542794 -172.75 21.125 C-159.06858146 19.59231499 -145.39646468 17.99177416 -131.73010254 16.32977295 C-129.61168723 16.0725065 -127.49312068 15.8164818 -125.37438965 15.56182861 C-115.33719541 14.35439328 -105.32454131 13.10356895 -95.34765625 11.46484375 C-86.16391409 9.95903357 -76.95195505 8.9127011 -67.70031738 7.92172241 C-51.25797825 6.15584003 -34.8916298 4.11580392 -18.55834961 1.52392578 C-12.29633877 0.54758864 -6.34043588 -0.28161835 0 0 Z " fill="#94BB54" transform="translate(903,225)"/>
<path d="M0 0 C1.43719207 2.87438415 1.12599348 5.33453771 1.12698364 8.54823303 C1.12854363 9.22902922 1.13010362 9.9098254 1.13171089 10.61125177 C1.13571609 12.90500007 1.13253263 15.19868278 1.12939453 17.49243164 C1.13074918 19.13374368 1.13252947 20.77505542 1.13470459 22.41636658 C1.1392825 26.89353525 1.13748498 31.37068099 1.1343255 35.84785008 C1.13179058 40.55965438 1.13414382 45.27145673 1.13571167 49.98326111 C1.13753559 57.93033192 1.13512702 65.87739348 1.13037109 73.82446289 C1.124986 82.92608432 1.12664767 92.02768315 1.1321975 101.12930399 C1.13679244 108.98712193 1.13734682 116.8449332 1.13475883 124.70275205 C1.13322308 129.3746184 1.13292471 134.0464743 1.13629532 138.71833992 C1.14751057 156.81358432 1.07448835 174.89727409 0.55419922 192.98608398 C0.5347872 193.70311119 0.51537518 194.4201384 0.49537492 195.1588937 C0.43994912 197.14515647 0.3760916 199.13117872 0.31173706 201.11717224 C0.27592466 202.23491752 0.24011227 203.35266279 0.20321465 204.50427914 C0 207 0 207 -1 208 C-2.43141627 208.1024849 -3.86784728 208.13580743 -5.30291653 208.14145851 C-6.23722419 208.14754965 -7.17153186 208.1536408 -8.13415188 208.15991652 C-9.17264894 208.16157675 -10.211146 208.16323697 -11.28111267 208.16494751 C-12.374948 208.17059105 -13.46878332 208.1762346 -14.59576517 208.18204916 C-18.29162209 208.19986624 -21.9874657 208.21049793 -25.68334961 208.22119141 C-28.32061537 208.23239903 -30.95787683 208.2439947 -33.59513855 208.25605774 C-40.03330655 208.28456588 -46.47148325 208.30765644 -52.90967911 208.3288355 C-58.14038626 208.3461381 -63.37108296 208.36537056 -68.60177803 208.38599777 C-69.34486191 208.38892637 -70.08794578 208.39185496 -70.85354735 208.3948723 C-72.36289038 208.4008291 -73.87223338 208.40679031 -75.38157637 208.41275589 C-89.55202476 208.46853309 -103.72248963 208.51818177 -117.89296759 208.5657609 C-130.06269939 208.6067656 -142.23240198 208.65302495 -154.40209961 208.703125 C-168.5186072 208.76123724 -182.63512123 208.81608991 -196.75166136 208.86572587 C-198.25590966 208.87102418 -199.76015794 208.8763268 -201.2644062 208.88163376 C-202.37471391 208.88554851 -202.37471391 208.88554851 -203.50745208 208.88954235 C-208.73384237 208.90819659 -213.96022023 208.92919917 -219.18659782 208.9510994 C-225.55306005 208.97771417 -231.91952308 209.00076279 -238.28601449 209.01918437 C-241.5368397 209.02868177 -244.78763145 209.04035552 -248.03843689 209.05528831 C-251.556263 209.07117158 -255.07405235 209.08091538 -258.59190369 209.08901978 C-260.1463032 209.09820228 -260.1463032 209.09820228 -261.73210472 209.10757029 C-263.13747784 209.10888376 -263.13747784 209.10888376 -264.57124233 209.11022377 C-265.38406121 209.11309918 -266.19688008 209.11597459 -267.03432983 209.11893713 C-269 209 -269 209 -271 208 C-270.66272844 205.10724778 -270.06566851 204.06441529 -267.953125 201.9921875 C-267.06109375 201.29351563 -266.1690625 200.59484375 -265.25 199.875 C-264.25226563 199.08738281 -263.25453125 198.29976562 -262.2265625 197.48828125 C-261.15181419 196.65785339 -260.07628516 195.82843503 -259 195 C-257.94522534 194.18110184 -256.89053773 193.36209154 -255.8359375 192.54296875 C-253.11822597 190.4394434 -250.38933496 188.35089006 -247.65722656 186.26611328 C-244.93265455 184.1845531 -242.21673097 182.09177643 -239.5 180 C-238.41670903 179.16661159 -237.33337567 178.33327829 -236.25 177.5 C-235.71375 177.0875 -235.1775 176.675 -234.625 176.25 C-233 175 -231.375 173.75 -229.75 172.5 C-229.21286377 172.08669434 -228.67572754 171.67338867 -228.12231445 171.24755859 C-227.04841757 170.4217327 -225.97404263 169.59652805 -224.89916992 168.77197266 C-222.04205126 166.57886592 -219.1961486 164.37280766 -216.36328125 162.1484375 C-215.76902344 161.684375 -215.17476562 161.2203125 -214.5625 160.7421875 C-213.41750644 159.84766128 -212.27544693 158.94936353 -211.13671875 158.046875 C-207.2249244 155 -207.2249244 155 -205 155 C-205 154.34 -205 153.68 -205 153 C-203.42958187 151.68208047 -201.78808495 150.4488634 -200.125 149.25 C-199.02214099 148.44448043 -197.92066748 147.63706177 -196.8203125 146.828125 C-195.90813965 146.15813477 -195.90813965 146.15813477 -194.97753906 145.47460938 C-191.27121471 142.71088109 -187.6410144 139.84885757 -184 137 C-160.61222067 118.74660165 -160.61222067 118.74660165 -152.95825195 118.77294922 C-152.24580322 118.77265717 -151.53335449 118.77236511 -150.79931641 118.77206421 C-148.44551393 118.77345704 -146.0920284 118.78901581 -143.73828125 118.8046875 C-142.10589267 118.8084178 -140.47350185 118.81126469 -138.84111023 118.81326294 C-134.54533707 118.82089806 -130.24969921 118.84054548 -125.95397949 118.8626709 C-121.57024974 118.88313195 -117.18649812 118.89226521 -112.80273438 118.90234375 C-104.20176083 118.92379151 -95.60089725 118.95792596 -87 119 C-87.01110306 118.3596431 -87.02220612 117.71928619 -87.03364563 117.05952454 C-87.14429503 110.3924454 -87.2196908 103.72562722 -87.2746582 97.05786133 C-87.29979671 94.56979782 -87.33391247 92.08180812 -87.37719727 89.59399414 C-87.4378743 86.01690459 -87.46621734 82.44079165 -87.48828125 78.86328125 C-87.51408768 77.75165115 -87.5398941 76.64002106 -87.56648254 75.4947052 C-87.56929499 67.74445372 -87.56929499 67.74445372 -84.61474609 63.88085938 C-83.75187988 63.26017578 -82.88901367 62.63949219 -82 62 C-81.23300781 61.35417969 -80.46601563 60.70835937 -79.67578125 60.04296875 C-78.50595703 59.12451172 -78.50595703 59.12451172 -77.3125 58.1875 C-76.4359375 57.49527344 -75.559375 56.80304687 -74.65625 56.08984375 C-73.7796875 55.40019531 -72.903125 54.71054687 -72 54 C-70.43622945 52.75158984 -68.8737299 51.50158597 -67.3125 50.25 C-66.49007812 49.59257813 -65.66765625 48.93515625 -64.8203125 48.2578125 C-62.70893695 46.56754232 -60.59980801 44.87462707 -58.4921875 43.1796875 C-52.45593116 38.33076286 -46.40393363 33.51154839 -40.25 28.8125 C-35.38317309 25.09594726 -30.62523872 21.26478952 -25.90234375 17.3671875 C-20.84117796 13.23923801 -15.69523543 9.21601833 -10.53222656 5.21630859 C-9.09882747 4.078451 -7.71499817 2.87892069 -6.3359375 1.67578125 C-4 0 -4 0 0 0 Z " fill="#449352" transform="translate(407,696)"/>
<path d="M0 0 C0.33 0 0.66 0 1 0 C1 26.73 1 53.46 1 81 C0.67 81 0.34 81 0 81 C-0.29042928 73.8184124 -0.57448841 66.63659139 -0.85449219 59.45458984 C-0.95009315 57.02061501 -1.04705652 54.58669324 -1.14550781 52.15283203 C-1.74013943 37.4265979 -2.1524262 22.7387668 -2 8 C-1.67 8 -1.34 8 -1 8 C-0.67 5.36 -0.34 2.72 0 0 Z " fill="#19CF1F" transform="translate(407,789)"/>
<path d="M0 0 C0.33 0.99 0.66 1.98 1 3 C-0.32 3.33 -1.64 3.66 -3 4 C-2.01 2.68 -1.02 1.36 0 0 Z " fill="#C2D62E" transform="translate(233,761)"/>
<path d="" fill="#0000FF" transform="translate(0,0)"/>
<path d="" fill="#808080" transform="translate(0,0)"/>
<path d="" fill="#808080" transform="translate(0,0)"/>
<path d="" fill="#55AAAA" transform="translate(0,0)"/>
</svg>
