<svg width="30" height="22" viewBox="0 0 30 22" fill="none" xmlns="http://www.w3.org/2000/svg">
<path fill-rule="evenodd" clip-rule="evenodd" d="M5.5486 1.14682e-06L23.7847 2.97469e-06C24.4876 -2.09466e-05 25.0939 -4.14501e-05 25.5934 0.0407636C26.1205 0.0838316 26.6448 0.17892 27.1493 0.435978C27.9019 0.819471 28.5139 1.43139 28.8974 2.18404C29.1544 2.68855 29.2495 3.21284 29.2926 3.73997C29.3334 4.23939 29.3334 4.84573 29.3333 5.54858V15.7848C29.3334 16.4876 29.3334 17.094 29.2926 17.5934C29.2495 18.1205 29.1544 18.6448 28.8974 19.1493C28.5139 19.9019 27.902 20.5139 27.1493 20.8974C26.6448 21.1544 26.1205 21.2495 25.5934 21.2926C25.094 21.3334 24.4876 21.3334 23.7848 21.3333L5.54864 21.3333C4.84576 21.3334 4.2394 21.3334 3.73996 21.2926C3.21284 21.2495 2.68855 21.1544 2.18404 20.8974C1.43139 20.5139 0.81947 19.9019 0.435976 19.1493C0.178918 18.6448 0.0838296 18.1205 0.0407617 17.5934C-4.33574e-05 17.0939 -2.2695e-05 16.4876 1.14681e-06 15.7847L1.46471e-06 5.54861C-2.23772e-05 4.84575 -4.30395e-05 4.2394 0.040762 3.73996C0.0838299 3.21284 0.178918 2.68855 0.435977 2.18404C0.81947 1.43139 1.43139 0.819469 2.18404 0.435976C2.68855 0.178917 3.21284 0.0838294 3.73997 0.0407615C4.23939 -4.33574e-05 4.84574 -2.2695e-05 5.5486 1.14682e-06ZM3.95712 2.69857C3.5949 2.72817 3.46061 2.7784 3.39468 2.81199C3.1438 2.93982 2.93983 3.1438 2.81199 3.39468C2.7784 3.46061 2.72817 3.5949 2.69857 3.95712C2.66771 4.3349 2.66667 4.83126 2.66667 5.6V15.7333C2.66667 16.5021 2.66771 16.9984 2.69857 17.3762C2.72817 17.7384 2.7784 17.8727 2.81199 17.9387C2.93982 18.1895 3.1438 18.3935 3.39468 18.5213C3.46061 18.5549 3.5949 18.6052 3.95712 18.6348C4.3349 18.6656 4.83126 18.6667 5.6 18.6667L23.7333 18.6667C24.5021 18.6667 24.9984 18.6656 25.3762 18.6348C25.7384 18.6052 25.8727 18.5549 25.9387 18.5213C26.1895 18.3935 26.3935 18.1895 26.5213 17.9387C26.5549 17.8727 26.6052 17.7384 26.6348 17.3762C26.6656 16.9984 26.6667 16.5021 26.6667 15.7333V5.6C26.6667 4.83126 26.6656 4.3349 26.6348 3.95712C26.6052 3.5949 26.5549 3.46061 26.5213 3.39468C26.3935 3.1438 26.1895 2.93983 25.9387 2.812C25.8727 2.77841 25.7384 2.72817 25.3762 2.69857C24.9984 2.66771 24.5021 2.66667 23.7333 2.66667L5.6 2.66667C4.83127 2.66667 4.3349 2.66771 3.95712 2.69857ZM14.6667 4C15.403 4 16 4.59696 16 5.33334H17.3333C18.0697 5.33334 18.6667 5.93029 18.6667 6.66667C18.6667 7.40305 18.0697 8 17.3333 8H14C13.6318 8 13.3333 8.29848 13.3333 8.66667C13.3333 9.03486 13.6318 9.33334 14 9.33334H15.3333C17.1743 9.33334 18.6667 10.8257 18.6667 12.6667C18.6667 14.2793 17.5215 15.6245 16 15.9333V16C16 16.7364 15.403 17.3333 14.6667 17.3333C13.9303 17.3333 13.3333 16.7364 13.3333 16H12C11.2636 16 10.6667 15.403 10.6667 14.6667C10.6667 13.9303 11.2636 13.3333 12 13.3333H15.3333C15.7015 13.3333 16 13.0349 16 12.6667C16 12.2985 15.7015 12 15.3333 12H14C12.1591 12 10.6667 10.5076 10.6667 8.66667C10.6667 7.05403 11.8118 5.70886 13.3333 5.40001V5.33334C13.3333 4.59696 13.9303 4 14.6667 4ZM4.66667 10.6667C4.66667 9.5621 5.5621 8.66667 6.66667 8.66667C7.77124 8.66667 8.66667 9.5621 8.66667 10.6667C8.66667 11.7712 7.77124 12.6667 6.66667 12.6667C5.5621 12.6667 4.66667 11.7712 4.66667 10.6667ZM20.6667 10.6667C20.6667 9.5621 21.5621 8.66667 22.6667 8.66667C23.7712 8.66667 24.6667 9.5621 24.6667 10.6667C24.6667 11.7712 23.7712 12.6667 22.6667 12.6667C21.5621 12.6667 20.6667 11.7712 20.6667 10.6667Z" fill="#144CEB"/>
</svg>
