<svg width="26" height="30" viewBox="0 0 26 30" fill="none" xmlns="http://www.w3.org/2000/svg">
<path fill-rule="evenodd" clip-rule="evenodd" d="M7.67827 5.75056e-07H16.3217C17.395 -1.64321e-05 18.2808 -3.04182e-05 19.0024 0.058926C19.7519 0.12016 20.4408 0.251579 21.088 0.5813C22.0915 1.09262 22.9074 1.90852 23.4187 2.91205C23.7484 3.55917 23.8798 4.2481 23.9411 4.99757C24 5.71915 24 6.60496 24 7.67824V15.3333C24 16.0697 23.403 16.6667 22.6667 16.6667C21.9303 16.6667 21.3333 16.0697 21.3333 15.3333V7.73334C21.3333 6.59123 21.3323 5.81484 21.2833 5.21472C21.2355 4.63016 21.1489 4.33123 21.0427 4.12269C20.787 3.62093 20.3791 3.21298 19.8773 2.95732C19.6688 2.85106 19.3698 2.7645 18.7853 2.71674C18.1852 2.6677 17.4088 2.66667 16.2667 2.66667H7.73334C6.59123 2.66667 5.81484 2.6677 5.21472 2.71674C4.63016 2.7645 4.33123 2.85106 4.12269 2.95732C3.62093 3.21298 3.21298 3.62093 2.95732 4.12269C2.85106 4.33123 2.7645 4.63016 2.71674 5.21472C2.6677 5.81484 2.66667 6.59123 2.66667 7.73334V21.6C2.66667 22.7421 2.6677 23.5185 2.71674 24.1186C2.7645 24.7032 2.85106 25.0021 2.95732 25.2106C3.21298 25.7124 3.62093 26.1204 4.12269 26.376C4.33123 26.4823 4.63016 26.5688 5.21472 26.6166C5.81484 26.6656 6.59123 26.6667 7.73334 26.6667H12C12.7364 26.6667 13.3333 27.2636 13.3333 28C13.3333 28.7364 12.7364 29.3333 12 29.3333H7.67824C6.60496 29.3334 5.71915 29.3334 4.99757 29.2744C4.2481 29.2132 3.55917 29.0818 2.91205 28.752C1.90852 28.2407 1.09262 27.4248 0.5813 26.4213C0.251579 25.7742 0.12016 25.0852 0.058926 24.3358C-3.04182e-05 23.6142 -1.64321e-05 22.7284 5.75056e-07 21.6551V7.67827C-1.64321e-05 6.60498 -3.04182e-05 5.71916 0.058926 4.99757C0.12016 4.2481 0.251579 3.55917 0.5813 2.91205C1.09262 1.90852 1.90852 1.09262 2.91205 0.5813C3.55917 0.251579 4.2481 0.12016 4.99757 0.058926C5.71916 -3.04182e-05 6.60498 -1.64321e-05 7.67827 5.75056e-07ZM5.33333 8C5.33333 7.26362 5.93029 6.66667 6.66667 6.66667H17.3333C18.0697 6.66667 18.6667 7.26362 18.6667 8C18.6667 8.73638 18.0697 9.33333 17.3333 9.33333H6.66667C5.93029 9.33333 5.33333 8.73638 5.33333 8ZM5.33333 13.3333C5.33333 12.597 5.93029 12 6.66667 12H14.6667C15.403 12 16 12.597 16 13.3333C16 14.0697 15.403 14.6667 14.6667 14.6667H6.66667C5.93029 14.6667 5.33333 14.0697 5.33333 13.3333ZM5.33333 18.6667C5.33333 17.9303 5.93029 17.3333 6.66667 17.3333H9.33333C10.0697 17.3333 10.6667 17.9303 10.6667 18.6667C10.6667 19.403 10.0697 20 9.33333 20H6.66667C5.93029 20 5.33333 19.403 5.33333 18.6667ZM24.9428 19.7239C25.4635 20.2446 25.4635 21.0888 24.9428 21.6095L18.9428 27.6095C18.4221 28.1302 17.5779 28.1302 17.0572 27.6095L14.3905 24.9428C13.8698 24.4221 13.8698 23.5779 14.3905 23.0572C14.9112 22.5365 15.7554 22.5365 16.2761 23.0572L18 24.781L23.0572 19.7239C23.5779 19.2032 24.4221 19.2032 24.9428 19.7239Z" fill="#144CEB"/>
</svg>
