<svg width="30" height="27" viewBox="0 0 30 27" fill="none" xmlns="http://www.w3.org/2000/svg">
<path fill-rule="evenodd" clip-rule="evenodd" d="M5.54861 1.14681e-06L6.19041 2.10049e-06C7.63546 -1.1251e-05 8.801 -2.18997e-05 9.74483 0.0770928C10.7166 0.156492 11.5702 0.324242 12.3599 0.726626C13.2714 1.19101 14.059 1.85638 14.6667 2.66666C15.2744 1.85638 16.062 1.19101 16.9734 0.726626C17.7631 0.324242 18.6167 0.156492 19.5885 0.0770928C20.5323 -2.18997e-05 21.6979 -1.1251e-05 23.1429 2.10049e-06L23.7847 1.14681e-06C24.4876 -2.2695e-05 25.0939 -4.33574e-05 25.5934 0.0407617C26.1205 0.0838296 26.6448 0.178917 27.1493 0.435976C27.902 0.819471 28.5139 1.43139 28.8974 2.18404C29.1544 2.68855 29.2495 3.21284 29.2926 3.73996C29.3334 4.23939 29.3334 4.84573 29.3333 5.54858V17.1181C29.3334 17.8209 29.3334 18.4273 29.2926 18.9267C29.2495 19.4538 29.1544 19.9781 28.8974 20.4826C28.5139 21.2353 27.902 21.8472 27.1493 22.2307C26.6448 22.4878 26.1205 22.5828 25.5934 22.6259C25.0939 22.6667 24.4876 22.6667 23.7848 22.6667H21.9002C20.1475 22.6667 19.5489 22.6803 19.0253 22.8393C18.5221 22.9921 18.0541 23.2426 17.6478 23.5765C17.225 23.924 16.8817 24.4145 15.9095 25.8728L15.7761 26.0729C15.5288 26.4439 15.1125 26.6667 14.6667 26.6667C14.2209 26.6667 13.8046 26.4439 13.5573 26.0729L13.4239 25.8728C12.4516 24.4145 12.1083 23.924 11.6855 23.5765C11.2793 23.2426 10.8112 22.9921 10.308 22.8393C9.7844 22.6803 9.18583 22.6667 7.4331 22.6667H5.54858C4.84573 22.6667 4.23939 22.6667 3.73997 22.6259C3.21284 22.5828 2.68855 22.4878 2.18404 22.2307C1.43139 21.8472 0.81947 21.2353 0.435976 20.4826C0.178918 19.9781 0.0838297 19.4538 0.0407617 18.9267C-4.33574e-05 18.4273 -2.2695e-05 17.8209 1.14681e-06 17.1181V5.54861C-2.2695e-05 4.84575 -4.33574e-05 4.23939 0.0407617 3.73996C0.0838297 3.21284 0.178918 2.68855 0.435976 2.18404C0.81947 1.43139 1.43139 0.81947 2.18404 0.435976C2.68855 0.178918 3.21284 0.0838297 3.73997 0.0407617C4.23939 -4.33574e-05 4.84575 -2.2695e-05 5.54861 1.14681e-06ZM13.3333 9.86667C13.3333 8.3512 13.3323 7.29478 13.2651 6.47232C13.1992 5.66543 13.0763 5.20185 12.8974 4.85071C12.5139 4.09806 11.9019 3.48614 11.1493 3.10264C10.7982 2.92373 10.3346 2.80083 9.52768 2.7349C8.70523 2.66771 7.64881 2.66667 6.13334 2.66667H5.6C4.83126 2.66667 4.3349 2.66771 3.95712 2.69857C3.5949 2.72817 3.46061 2.7784 3.39468 2.81199C3.1438 2.93983 2.93983 3.1438 2.81199 3.39468C2.7784 3.46061 2.72817 3.5949 2.69857 3.95712C2.66771 4.3349 2.66667 4.83126 2.66667 5.6V17.0667C2.66667 17.8354 2.66771 18.3318 2.69857 18.7096C2.72817 19.0718 2.7784 19.2061 2.81199 19.272C2.93983 19.5229 3.1438 19.7268 3.39468 19.8547C3.46061 19.8883 3.5949 19.9385 3.95712 19.9681C4.3349 19.999 4.83126 20 5.6 20H7.4331C7.49959 20 7.56518 20 7.62989 20C9.10943 19.9994 10.1325 19.999 11.0829 20.2877C11.9028 20.5367 12.6669 20.9413 13.3333 21.4794V9.86667ZM16 21.4794C16.6665 20.9413 17.4305 20.5367 18.2504 20.2877C19.2008 19.999 20.2239 19.9994 21.7034 20C21.7682 20 21.8337 20 21.9002 20H23.7333C24.5021 20 24.9984 19.999 25.3762 19.9681C25.7384 19.9385 25.8727 19.8883 25.9387 19.8547C26.1895 19.7268 26.3935 19.5229 26.5213 19.272C26.5549 19.2061 26.6052 19.0718 26.6348 18.7096C26.6656 18.3318 26.6667 17.8354 26.6667 17.0667V5.6C26.6667 4.83126 26.6656 4.3349 26.6348 3.95712C26.6052 3.5949 26.5549 3.46061 26.5213 3.39468C26.3935 3.1438 26.1895 2.93982 25.9387 2.81199C25.8727 2.7784 25.7384 2.72817 25.3762 2.69857C24.9984 2.66771 24.5021 2.66667 23.7333 2.66667H23.2C21.6845 2.66667 20.6281 2.66771 19.8057 2.7349C18.9988 2.80083 18.5352 2.92373 18.184 3.10264C17.4314 3.48614 16.8195 4.09806 16.436 4.85071C16.2571 5.20185 16.1342 5.66543 16.0682 6.47232C16.001 7.29478 16 8.3512 16 9.86667V21.4794Z" fill="#144CEB"/>
</svg>
