<svg width="27" height="27" viewBox="0 0 27 27" fill="none" xmlns="http://www.w3.org/2000/svg">
<path fill-rule="evenodd" clip-rule="evenodd" d="M7.67827 5.75056e-07H18.9884C20.0617 -1.64321e-05 20.9475 -3.04182e-05 21.6691 0.058926C22.4186 0.12016 23.1075 0.251579 23.7546 0.5813C24.7581 1.09262 25.574 1.90852 26.0854 2.91205C26.4151 3.55917 26.5465 4.2481 26.6077 4.99757C26.6667 5.71915 26.6667 6.60496 26.6667 7.67824V18.9884C26.6667 20.0617 26.6667 20.9475 26.6077 21.6691C26.5465 22.4186 26.4151 23.1075 26.0854 23.7546C25.574 24.7581 24.7581 25.574 23.7546 26.0854C23.1075 26.4151 22.4186 26.5465 21.6691 26.6077C20.9475 26.6667 20.0617 26.6667 18.9884 26.6667H7.67824C6.60496 26.6667 5.71915 26.6667 4.99757 26.6077C4.2481 26.5465 3.55917 26.4151 2.91205 26.0854C1.90852 25.574 1.09262 24.7581 0.5813 23.7546C0.251579 23.1075 0.12016 22.4186 0.058926 21.6691C0.0214296 21.2102 0.00778669 20.6848 0.00282711 20.087C-0.000532211 20.0354 -0.000896356 19.9835 0.00173428 19.9318C-9.59743e-06 19.6349 -4.67015e-06 19.3206 5.75056e-07 18.9884V7.67827C-1.64321e-05 6.60497 -3.04182e-05 5.71916 0.058926 4.99757C0.12016 4.2481 0.251579 3.55917 0.5813 2.91205C1.09262 1.90852 1.90852 1.09262 2.91205 0.5813C3.55917 0.251579 4.2481 0.12016 4.99757 0.058926C5.71916 -3.04182e-05 6.60498 -1.64321e-05 7.67827 5.75056e-07ZM2.67593 20.543C2.68292 20.8907 2.6952 21.1883 2.71674 21.452C2.7645 22.0365 2.85106 22.3354 2.95732 22.544C3.21298 23.0457 3.62093 23.4537 4.12269 23.7094C4.33123 23.8156 4.63016 23.9022 5.21472 23.9499C5.81484 23.999 6.59123 24 7.73333 24H18.9333C20.0754 24 20.8518 23.999 21.452 23.9499C22.0365 23.9022 22.3354 23.8156 22.544 23.7094C23.0457 23.4537 23.4537 23.0457 23.7094 22.544C23.8156 22.3354 23.9022 22.0365 23.9499 21.452C23.999 20.8518 24 20.0754 24 18.9333V7.73334C24 6.59123 23.999 5.81484 23.9499 5.21472C23.9022 4.63016 23.8156 4.33123 23.7094 4.12269C23.4537 3.62093 23.0457 3.21298 22.544 2.95732C22.3354 2.85106 22.0365 2.7645 21.452 2.71674C20.8518 2.6677 20.0754 2.66667 18.9333 2.66667H7.73334C6.59123 2.66667 5.81484 2.6677 5.21472 2.71674C4.63016 2.7645 4.33123 2.85106 4.12269 2.95732C3.62093 3.21298 3.21298 3.62093 2.95732 4.12269C2.85106 4.33123 2.7645 4.63016 2.71674 5.21472C2.6677 5.81484 2.66667 6.59123 2.66667 7.73333V16.7811L6.30295 13.1448C6.31012 13.1376 6.31739 13.1303 6.32475 13.123C6.43702 13.0106 6.57109 12.8764 6.69889 12.7679C6.84699 12.6422 7.07179 12.4748 7.38197 12.374C7.78365 12.2435 8.21635 12.2435 8.61804 12.374C8.92821 12.4748 9.15301 12.6422 9.30111 12.7679C9.42892 12.8764 9.56299 13.0106 9.67526 13.123C9.68262 13.1303 9.68989 13.1376 9.69706 13.1448L12 15.4477L16.7811 10.6667H14.6667C13.9303 10.6667 13.3333 10.0697 13.3333 9.33333C13.3333 8.59696 13.9303 8 14.6667 8H20C20.7364 8 21.3333 8.59696 21.3333 9.33333V14.6667C21.3333 15.403 20.7364 16 20 16C19.2636 16 18.6667 15.403 18.6667 14.6667V12.5523L13.6971 17.5219C13.6899 17.5291 13.6826 17.5363 13.6753 17.5437C13.563 17.6561 13.4289 17.7902 13.3011 17.8987C13.153 18.0245 12.9282 18.1919 12.618 18.2926C12.2163 18.4232 11.7837 18.4232 11.382 18.2926C11.0718 18.1919 10.847 18.0245 10.6989 17.8987C10.5711 17.7902 10.437 17.6561 10.3248 17.5437C10.3174 17.5363 10.3101 17.5291 10.3029 17.5219L8 15.219L2.67593 20.543Z" fill="#144CEB"/>
</svg>
