<svg width="30" height="30" viewBox="0 0 30 30" fill="none" xmlns="http://www.w3.org/2000/svg">
<path fill-rule="evenodd" clip-rule="evenodd" d="M14.6667 2.66667C8.03925 2.66667 2.66667 8.03925 2.66667 14.6667C2.66667 21.2941 8.03925 26.6667 14.6667 26.6667C21.2941 26.6667 26.6667 21.2941 26.6667 14.6667C26.6667 8.03925 21.2941 2.66667 14.6667 2.66667ZM0 14.6667C0 6.56649 6.56649 0 14.6667 0C22.7668 0 29.3333 6.56649 29.3333 14.6667C29.3333 22.7668 22.7668 29.3333 14.6667 29.3333C6.56649 29.3333 0 22.7668 0 14.6667ZM19.0572 8.39052C19.5779 7.86983 20.4221 7.86983 20.9428 8.39052C21.4635 8.91122 21.4635 9.75544 20.9428 10.2761L10.2761 20.9428C9.75544 21.4635 8.91122 21.4635 8.39052 20.9428C7.86983 20.4221 7.86983 19.5779 8.39052 19.0572L19.0572 8.39052ZM8.66667 10.6667C8.66667 9.5621 9.5621 8.66667 10.6667 8.66667C11.7712 8.66667 12.6667 9.5621 12.6667 10.6667C12.6667 11.7712 11.7712 12.6667 10.6667 12.6667C9.5621 12.6667 8.66667 11.7712 8.66667 10.6667ZM16.6667 18.6667C16.6667 17.5621 17.5621 16.6667 18.6667 16.6667C19.7712 16.6667 20.6667 17.5621 20.6667 18.6667C20.6667 19.7712 19.7712 20.6667 18.6667 20.6667C17.5621 20.6667 16.6667 19.7712 16.6667 18.6667Z" fill="#144CEB"/>
</svg>
